<?xml version="1.0" standalone="no"?>
<!DOCTYPE svg PUBLIC "-//W3C//DTD SVG 20010904//EN"
 "http://www.w3.org/TR/2001/REC-SVG-20010904/DTD/svg10.dtd">
<svg version="1.0" xmlns="http://www.w3.org/2000/svg"
 width="1276.000000pt" height="1276.000000pt" viewBox="0 0 1276.000000 1276.000000"
 preserveAspectRatio="xMidYMid meet">
<metadata>
Created by potrace 1.14, written by Peter Selinger 2001-2017
</metadata>
<g transform="translate(0.000000,1276.000000) scale(0.100000,-0.100000)"
fill="#000000" stroke="none">
<path d="M6293 11423 c15 -2 37 -2 50 0 12 2 0 4 -28 4 -27 0 -38 -2 -22 -4z"/>
<path d="M6015 11340 c-1099 -76 -2114 -489 -2941 -1197 -152 -129 -441 -423
-570 -578 -642 -775 -1021 -1677 -1134 -2700 -18 -159 -24 -659 -11 -835 73
-958 410 -1867 970 -2618 284 -380 646 -743 1016 -1017 666 -493 1438 -815
2247 -935 320 -48 783 -64 1094 -40 1198 95 2304 602 3144 1441 860 861 1371
1996 1450 3224 67 1052 -231 2156 -823 3045 -305 457 -712 889 -1142 1211
-759 569 -1617 899 -2570 989 -155 15 -575 20 -730 10z m-555 -168 c0 -21 -18
-42 -37 -42 -20 0 -27 28 -13 45 18 21 50 19 50 -3z m1525 -72 c10 -16 -14
-50 -35 -50 -25 0 -27 35 -2 49 22 13 29 13 37 1z m-1199 -74 c-4 -17 -13 -26
-26 -26 -16 0 -20 7 -20 34 0 38 17 51 39 31 9 -9 11 -23 7 -39z m-630 19 c9
-22 -3 -45 -20 -39 -17 6 -29 32 -20 45 8 14 34 11 40 -6z m841 -71 c3 -8 1
-20 -4 -25 -14 -14 -43 0 -43 22 0 24 38 26 47 3z m1308 -24 c0 -28 -4 -35
-20 -35 -13 0 -21 8 -23 23 -5 34 5 54 25 50 13 -2 18 -13 18 -38z m-626 16
c14 -17 4 -46 -15 -46 -18 0 -28 24 -20 45 7 19 20 19 35 1z m-995 -87 c-8
-14 -34 -11 -34 4 0 8 3 17 7 20 9 9 34 -13 27 -24z m1829 13 c19 -20 13 -32
-14 -32 -22 0 -33 16 -25 35 7 20 19 19 39 -3z m-307 -83 c10 -17 -13 -36 -27
-22 -12 12 -4 33 11 33 5 0 12 -5 16 -11z m-2179 -26 c6 -16 -30 -34 -46 -23
-21 12 -5 42 21 38 12 -2 23 -8 25 -15z m-629 -55 c5 -25 -27 -51 -44 -37 -19
15 -18 29 4 45 21 16 36 13 40 -8z m4293 -7 c56 -56 23 -141 -56 -141 -88 0
-114 117 -35 157 38 19 59 16 91 -16z m-2143 -28 c-4 -22 -38 -30 -49 -12 -11
19 -2 29 27 29 19 0 25 -5 22 -17z m-1130 -20 c5 -18 -28 -29 -38 -12 -5 7 -6
17 -3 22 7 12 35 5 41 -10z m-700 -55 c16 -20 3 -70 -17 -66 -17 3 -27 39 -17
64 7 17 20 18 34 2z m1458 1 c10 -17 -12 -32 -35 -24 -29 9 -27 35 3 35 14 0
28 -5 32 -11z m-2076 -29 c0 -27 -19 -35 -38 -17 -12 13 -13 19 -3 31 16 19
41 10 41 -14z m1491 -1 c9 -17 8 -25 -5 -37 -15 -15 -17 -15 -32 0 -13 12 -14
20 -5 37 7 11 16 21 21 21 5 0 14 -10 21 -21z m1349 -5 c0 -8 -9 -14 -20 -14
-22 0 -28 26 -7 33 16 6 27 -1 27 -19z m-1750 -8 c0 -26 -24 -51 -40 -41 -14
8 -13 38 2 53 19 19 38 14 38 -12z m-250 -61 c0 -19 -34 -20 -49 -2 -8 10 -7
17 1 25 14 14 48 -2 48 -23z m2758 13 c3 -13 -3 -18 -22 -18 -27 0 -41 14 -31
31 10 16 49 6 53 -13z m-990 -40 c-2 -22 -9 -34 -21 -36 -25 -5 -32 25 -12 48
26 29 37 25 33 -12z m407 12 c8 -26 -1 -40 -26 -40 -13 0 -19 7 -19 23 0 40
34 53 45 17z m-1270 -61 c0 -15 -7 -25 -18 -27 -22 -4 -33 24 -17 43 18 21 35
13 35 -16z m-1225 0 c0 -24 -23 -21 -28 4 -2 10 3 17 12 17 10 0 16 -9 16 -21z
m1855 -15 c23 -9 48 -62 41 -90 -13 -52 -77 -80 -125 -54 -31 16 -46 65 -31
100 7 17 20 35 29 40 19 11 62 13 86 4z m-255 -54 c0 -32 -26 -43 -36 -15 -9
21 3 45 21 45 10 0 15 -10 15 -30z m1152 4 c3 -3 4 -14 1 -25 -6 -20 -37 -26
-48 -9 -13 21 30 52 47 34z m-2335 -20 c7 -18 -12 -34 -39 -34 -35 0 -10 48
25 50 4 0 10 -7 14 -16z m-1073 -13 c8 -13 -21 -34 -39 -27 -25 9 -18 36 9 36
14 0 27 -4 30 -9z m3021 -11 c10 -16 -14 -50 -35 -50 -25 0 -27 35 -2 49 22
13 29 13 37 1z m1215 -25 c0 -21 -29 -45 -45 -39 -23 9 -18 40 8 51 25 12 37
8 37 -12z m-2812 3 c25 -25 8 -58 -28 -58 -15 0 -22 40 -10 55 15 18 22 19 38
3z m2352 -9 c15 -27 -5 -56 -26 -38 -17 14 -18 31 -2 47 16 16 15 16 28 -9z
m-2880 -18 c15 -30 12 -53 -6 -49 -23 4 -39 32 -31 52 9 22 24 20 37 -3z
m-806 -22 c62 -49 4 -150 -68 -117 -53 23 -54 101 -2 126 31 15 40 14 70 -9z
m2506 1 c0 -11 -4 -20 -9 -20 -5 0 -16 -3 -25 -6 -11 -4 -16 0 -16 13 0 24 8
33 32 33 11 0 18 -7 18 -20z m-2200 -35 c0 -16 -35 -21 -44 -6 -8 12 4 21 26
21 10 0 18 -7 18 -15z m2560 -10 c10 -13 10 -19 -5 -35 -23 -25 -32 -25 -45
-1 -21 41 21 71 50 36z m385 -35 c0 -44 -31 -56 -41 -16 -8 35 2 58 23 54 13
-2 18 -13 18 -38z m-1507 6 c6 -29 -15 -43 -35 -24 -14 14 -14 20 -3 33 16 19
34 15 38 -9z m882 9 c15 -18 6 -45 -15 -45 -18 0 -30 24 -21 45 7 19 20 19 36
0z m1836 5 c17 -17 5 -70 -16 -70 -21 0 -34 48 -18 68 13 15 21 15 34 2z
m-3407 -24 c8 -10 8 -16 -2 -25 -17 -13 -54 10 -43 27 10 16 31 15 45 -2z
m2786 -11 c0 -11 -7 -21 -16 -23 -18 -3 -33 23 -23 39 10 17 39 5 39 -16z
m-3770 -15 c11 -18 -7 -60 -25 -60 -28 0 -33 16 -14 45 17 26 29 31 39 15z
m406 -11 c9 -17 8 -25 -5 -37 -15 -15 -17 -15 -32 0 -10 10 -14 23 -9 37 8 27
31 27 46 0z m2984 -12 c10 -8 15 -19 11 -25 -15 -25 -63 -4 -53 22 8 20 18 20
42 3z m1223 -35 c-2 -11 -11 -16 -23 -14 -26 5 -37 23 -23 39 14 17 50 -3 46
-25z m-1411 12 c7 -19 -20 -49 -36 -40 -6 4 -11 18 -11 32 0 17 5 24 20 24 11
0 23 -7 27 -16z m-2393 -50 c9 -3 16 -11 16 -16 0 -13 -31 -37 -47 -38 -16 0
-17 32 -1 48 14 14 12 14 32 6z m2276 -18 c0 -21 -21 -31 -30 -15 -5 7 -6 17
-4 21 9 14 34 9 34 -6z m1208 -19 c2 -10 -3 -17 -12 -17 -10 0 -16 9 -16 21 0
24 23 21 28 -4z m-4843 3 c10 -15 -14 -50 -34 -50 -28 0 -33 27 -8 45 25 18
34 19 42 5z m1683 -33 c2 -28 0 -37 -13 -37 -18 0 -39 46 -30 67 11 29 40 9
43 -30z m342 23 c0 -13 -7 -20 -20 -20 -19 0 -27 20 -13 33 13 14 33 6 33 -13z
m-812 -12 c-4 -30 -48 -39 -48 -10 0 24 8 32 32 32 14 0 19 -6 16 -22z m1260
-51 c-4 -39 -24 -46 -39 -13 -9 20 -9 29 0 40 20 24 43 8 39 -27z m417 12 c9
-13 -32 -52 -45 -44 -11 7 -13 38 -3 48 10 11 41 8 48 -4z m-1307 -36 c-2 -17
-9 -28 -18 -28 -9 0 -16 11 -18 28 -3 22 1 27 18 27 17 0 21 -5 18 -27z m1390
-2 c-2 -9 -13 -17 -26 -19 -16 -3 -22 2 -22 16 0 11 6 22 13 25 20 7 38 -4 35
-22z m230 -11 c4 -38 -14 -63 -28 -40 -11 18 -13 64 -3 74 14 14 28 -1 31 -34z
m345 24 c9 -10 -4 -34 -18 -34 -17 0 -28 17 -20 30 7 11 28 13 38 4z m640 -11
c11 -10 -13 -33 -34 -33 -12 0 -19 7 -19 20 0 14 7 20 23 20 13 0 27 -3 30 -7z
m-3786 -20 c6 -17 -36 -38 -50 -24 -7 7 -6 15 3 26 15 18 41 17 47 -2z m-82
-33 c0 -28 -4 -35 -20 -35 -13 0 -21 8 -23 23 -5 34 5 54 25 50 13 -2 18 -13
18 -38z m-626 16 c14 -17 4 -46 -15 -46 -18 0 -28 24 -20 45 7 19 20 19 35 1z
m4299 1 c14 -17 4 -57 -14 -57 -17 0 -37 37 -30 56 7 18 30 18 44 1z m-3235
-39 c12 -19 -6 -48 -29 -48 -16 0 -29 43 -19 60 9 15 35 9 48 -12z m2016 -44
c-14 -17 -35 -18 -45 -2 -11 17 26 40 43 27 10 -9 10 -15 2 -25z m595 5 c-3
-5 -14 -9 -25 -9 -21 0 -26 26 -6 33 15 5 39 -12 31 -24z m-3734 7 c0 -19 -29
-48 -44 -43 -17 6 -20 38 -4 48 21 14 48 10 48 -5z m890 -1 c7 -8 18 -15 25
-15 13 0 45 -42 45 -60 0 -22 -42 -9 -76 24 -24 22 -35 40 -31 50 8 20 21 20
37 1z m1725 5 c10 -16 -14 -50 -35 -50 -25 0 -27 35 -2 49 22 13 29 13 37 1z
m2326 -15 c0 -5 -9 -11 -21 -13 -20 -3 -27 8 -13 22 10 9 34 3 34 -9z m-2471
-46 c0 -18 -22 -20 -41 -3 -22 20 -25 40 -6 47 12 5 47 -27 47 -44z m2018 -1
c3 -13 -3 -18 -22 -18 -20 0 -26 5 -26 21 0 15 5 20 22 17 13 -2 24 -11 26
-20z m1210 0 c8 -8 8 -15 1 -24 -12 -14 -49 -7 -49 10 0 27 27 35 48 14z
m-4170 -22 c2 -10 -1 -23 -7 -29 -15 -15 -46 16 -37 38 8 21 40 15 44 -9z
m4717 14 c10 -15 -14 -50 -34 -50 -28 0 -33 27 -8 45 25 18 34 19 42 5z
m-2741 -9 c10 -15 -12 -61 -29 -61 -24 0 -29 29 -10 50 20 22 31 25 39 11z
m404 -24 c3 -22 -1 -27 -18 -27 -23 0 -35 22 -26 46 10 25 41 12 44 -19z m758
22 c10 -17 -23 -46 -37 -32 -7 7 -9 19 -6 27 7 18 33 21 43 5z m-4080 -10 c10
-17 -13 -36 -27 -22 -12 12 -4 33 11 33 5 0 12 -5 16 -11z m4127 -24 c-3 -35
-23 -49 -42 -30 -12 12 -12 18 3 40 21 33 42 27 39 -10z m405 6 c2 -13 -1 -28
-7 -34 -17 -17 -45 15 -36 42 9 29 39 23 43 -8z m-4803 -32 c0 -24 -5 -35 -17
-37 -22 -4 -35 42 -18 63 20 24 35 12 35 -26z m3665 22 c14 -27 13 -41 -3 -41
-19 0 -50 37 -42 49 10 17 33 13 45 -8z m-1042 -29 c2 -23 -1 -34 -14 -39 -10
-4 -19 -2 -22 5 -2 8 -8 8 -22 -1 -15 -8 -22 -9 -31 0 -16 16 -1 36 22 30 13
-4 19 0 19 12 0 45 44 39 48 -7z m-3240 5 c4 -20 -25 -34 -40 -19 -15 15 -1
44 19 40 10 -2 19 -11 21 -21z m2611 9 c14 -17 4 -46 -15 -46 -18 0 -28 24
-20 45 7 19 20 19 35 1z m-609 -50 c0 -20 -24 -36 -39 -26 -8 4 -11 15 -8 24
8 20 47 21 47 2z m554 -2 c46 -18 -25 -55 -74 -39 -20 6 -26 25 -13 38 8 9 66
9 87 1z m4311 -34 c0 -28 -4 -35 -20 -35 -13 0 -21 8 -23 23 -5 34 5 54 25 50
13 -2 18 -13 18 -38z m-6635 16 c0 -20 -40 -32 -51 -15 -11 19 -2 29 27 29 14
0 24 -6 24 -14z m600 -1 c19 -23 -1 -40 -29 -26 -22 12 -26 23 -14 34 11 12
30 8 43 -8z m2613 -3 c19 -20 13 -32 -14 -32 -22 0 -33 16 -25 35 7 20 19 19
39 -3z m2796 4 c14 -17 4 -46 -15 -46 -18 0 -28 24 -20 45 7 19 20 19 35 1z
m-5263 -17 c6 -11 -31 -48 -48 -49 -10 0 -10 44 -1 53 10 11 41 8 49 -4z
m1883 -11 c10 -26 6 -38 -12 -38 -16 0 -39 38 -32 50 11 18 35 10 44 -12z
m1605 13 c10 -16 -5 -41 -24 -41 -10 0 -20 6 -23 14 -10 25 33 50 47 27z
m1212 -16 c8 -20 -13 -45 -32 -38 -14 5 -19 34 -7 46 11 12 33 7 39 -8z
m-4388 -49 c-4 -42 -30 -40 -42 2 -7 26 -6 36 4 42 22 14 41 -10 38 -44z
m3420 31 c4 -22 -27 -35 -38 -16 -10 15 7 42 24 36 6 -2 12 -11 14 -20z
m-3080 -4 c-5 -26 -38 -29 -38 -4 0 15 6 21 21 21 14 0 19 -5 17 -17z m2440
-13 c15 0 22 -6 22 -20 0 -17 -7 -20 -49 -20 -28 0 -53 5 -56 10 -11 18 17 42
39 36 12 -3 31 -6 44 -6z m3006 -6 c19 -18 12 -34 -14 -34 -22 0 -34 15 -26
35 7 19 21 19 40 -1z m-6556 -17 c2 -10 -3 -17 -12 -17 -18 0 -29 16 -21 31 9
14 29 6 33 -14z m4322 -10 c0 -5 8 -16 18 -23 16 -13 16 -15 -2 -29 -31 -24
-44 -18 -51 25 -8 47 0 66 21 49 8 -6 14 -16 14 -22z m-2765 -12 c0 -39 -31
-48 -41 -11 -7 30 2 48 24 44 11 -2 17 -13 17 -33z m1071 18 c19 -28 -3 -49
-27 -27 -11 10 -19 23 -19 31 0 19 30 16 46 -4z m-2526 -19 c0 -8 -9 -14 -20
-14 -22 0 -28 26 -7 33 16 6 27 -1 27 -19z m3760 5 c12 -22 7 -49 -9 -49 -15
0 -33 39 -27 56 8 20 24 17 36 -7z m1665 -9 c0 -36 -29 -33 -33 3 -3 23 0 28
15 25 12 -2 18 -12 18 -28z m-2389 -1 c8 -13 -3 -24 -33 -34 -18 -5 -23 -2
-23 13 0 10 3 22 7 25 10 11 41 8 49 -4z m-2278 -51 c3 -13 -3 -18 -22 -18
-27 0 -41 14 -31 31 10 16 49 6 53 -13z m5388 11 c10 -17 -13 -36 -27 -22 -12
12 -4 33 11 33 5 0 12 -5 16 -11z m-2756 -14 c10 -13 10 -19 -5 -35 -23 -25
-32 -25 -45 1 -20 37 23 66 50 34z m1214 -17 c13 -22 -14 -54 -38 -45 -16 6
-22 48 -9 61 11 11 35 3 47 -16z m-5366 -5 c-2 -10 -13 -19 -26 -21 -17 -3
-22 2 -22 17 0 16 6 21 26 21 19 0 25 -5 22 -17z m532 -13 c0 -33 -24 -50 -42
-32 -9 9 -8 18 2 37 19 35 40 32 40 -5z m405 10 c8 -26 -1 -40 -26 -40 -13 0
-19 7 -19 23 0 40 34 53 45 17z m2293 -8 c3 -16 -2 -22 -17 -22 -24 0 -35 15
-27 36 9 23 40 13 44 -14z m-610 1 c-4 -22 -38 -30 -49 -12 -11 19 -2 29 27
29 19 0 25 -5 22 -17z m-98 -43 c0 -24 -26 -38 -42 -22 -8 8 -8 15 2 27 18 21
40 19 40 -5z m403 -4 c20 -16 23 -46 3 -46 -22 0 -60 35 -52 48 9 15 27 15 49
-2z m3311 -2 c23 -9 20 -31 -5 -39 -25 -8 -43 13 -27 32 12 15 11 15 32 7z
m-4396 -32 c13 -19 12 -22 -3 -28 -22 -9 -50 19 -41 41 8 21 25 16 44 -13z
m2912 12 c11 -12 10 -18 -3 -32 -16 -15 -18 -15 -34 0 -13 14 -14 20 -3 32 7
9 16 16 20 16 4 0 13 -7 20 -16z m-194 -9 c4 -8 0 -22 -7 -31 -11 -13 -14 -13
-27 0 -17 17 -9 46 13 46 9 0 18 -7 21 -15z m1209 -25 c0 -31 -31 -39 -40 -11
-8 26 2 43 23 39 11 -2 17 -13 17 -28z m-5322 1 c8 -8 7 -16 -7 -29 -16 -16
-18 -16 -30 1 -8 10 -20 15 -29 11 -17 -6 -32 11 -22 25 7 13 73 7 88 -8z
m2567 -7 c0 -8 -9 -14 -20 -14 -22 0 -28 26 -7 33 16 6 27 -1 27 -19z m-1818
-10 c11 -11 -5 -44 -21 -44 -9 0 -22 -5 -27 -10 -15 -15 -46 -1 -42 19 2 9 11
16 20 16 10 0 23 6 30 13 13 13 31 16 40 6z m3261 -22 c22 -19 22 -32 -1 -32
-29 0 -56 25 -49 44 7 18 18 15 50 -12z m-686 -18 c3 -9 1 -19 -5 -23 -7 -4
-8 -12 -2 -21 18 -29 11 -80 -15 -105 -53 -54 -155 -16 -155 57 0 57 57 105
109 91 12 -3 21 -1 21 6 0 17 40 13 47 -5z m1376 -16 c23 -27 22 -59 -4 -92
-27 -34 -71 -35 -104 -1 -27 26 -31 54 -14 86 22 42 89 46 122 7z m1497 -4 c0
-8 -9 -14 -20 -14 -22 0 -28 26 -7 33 16 6 27 -1 27 -19z m-6074 -8 c7 -29 -1
-46 -21 -46 -8 0 -17 5 -20 11 -11 16 4 59 20 59 8 0 17 -11 21 -24z m-405 2
c-1 -5 -1 -17 -1 -27 0 -22 -21 -33 -40 -21 -19 12 4 63 26 58 8 -2 15 -6 15
-10z m1454 -40 c19 -2 30 -9 30 -18 0 -11 -12 -15 -48 -15 -42 0 -51 4 -64 27
-14 22 -15 29 -3 43 12 15 15 14 34 -9 12 -14 34 -26 51 -28z m1163 20 c-2
-22 -9 -34 -21 -36 -25 -5 -32 25 -12 48 26 29 37 25 33 -12z m407 12 c8 -26
-1 -40 -26 -40 -13 0 -19 7 -19 23 0 40 34 53 45 17z m-922 -26 c-3 -8 -12
-14 -19 -14 -20 0 -30 30 -13 40 17 11 40 -7 32 -26z m-1883 -14 c0 -11 -4
-20 -9 -20 -5 0 -16 -3 -25 -6 -11 -4 -16 0 -16 13 0 24 8 33 32 33 11 0 18
-7 18 -20z m7018 -2 c3 -13 -3 -18 -22 -18 -27 0 -41 14 -31 31 10 16 49 6 53
-13z m-2490 -8 c4 -21 -38 -46 -49 -29 -11 18 9 51 29 47 9 -2 18 -10 20 -18z
m-900 -24 c2 -15 1 -35 -2 -43 -9 -24 -36 3 -36 37 0 49 33 54 38 6z m-2073
-4 c5 -12 18 -22 27 -22 28 0 58 -37 58 -72 0 -42 -25 -68 -67 -68 -61 0 -96
68 -57 112 14 14 14 20 4 33 -14 17 -6 48 13 43 6 -3 16 -14 22 -26z m2425 13
c0 -9 -7 -18 -16 -22 -18 -7 -39 11 -30 26 11 17 46 13 46 -4z m2050 -15 c0
-33 -24 -50 -42 -32 -9 9 -8 18 2 37 19 35 40 32 40 -5z m405 10 c8 -26 -1
-40 -26 -40 -13 0 -19 7 -19 23 0 40 34 53 45 17z m-1589 -15 c8 -31 -1 -55
-20 -55 -14 0 -26 29 -26 63 0 28 39 21 46 -8z m342 8 c-5 -26 -38 -29 -38 -4
0 15 6 21 21 21 14 0 19 -5 17 -17z m-4828 -8 c10 -13 10 -19 -5 -35 -23 -25
-32 -25 -45 -1 -21 41 21 71 50 36z m4065 -24 c14 -44 -24 -70 -45 -30 -9 15
-8 24 1 35 16 20 37 18 44 -5z m1203 0 c19 -11 11 -55 -10 -59 -12 -2 -19 5
-24 22 -9 38 6 55 34 37z m-5181 -16 c2 -6 -3 -19 -11 -30 -12 -16 -16 -17
-30 -6 -12 10 -13 18 -5 33 11 20 40 21 46 3z m-802 -5 c11 -18 -6 -50 -26
-50 -28 0 -37 30 -14 46 22 17 32 17 40 4z m3419 1 c10 -16 -5 -41 -24 -41
-25 0 -35 18 -20 35 14 17 36 20 44 6z m-2295 -68 c10 -17 10 -17 11 0 0 27
34 17 38 -11 4 -26 -25 -42 -38 -22 -7 11 -11 11 -24 1 -20 -17 -36 -6 -36 25
0 29 33 34 49 7z m2671 -23 c0 -23 -25 -33 -40 -15 -17 21 6 61 26 44 8 -6 14
-19 14 -29z m3253 24 c10 -10 -12 -44 -28 -44 -18 0 -27 14 -19 34 6 16 35 22
47 10z m-7059 -29 c5 -14 -20 -35 -43 -35 -15 0 -14 37 2 43 22 10 35 7 41 -8z
m2616 -15 c0 -11 -4 -20 -9 -20 -5 0 -16 -3 -25 -6 -11 -4 -16 0 -16 13 0 24
8 33 32 33 11 0 18 -7 18 -20z m-1685 -15 c0 -11 -8 -21 -17 -23 -14 -3 -18 3
-18 23 0 20 4 26 18 23 9 -2 17 -12 17 -23z m1225 16 c0 -4 24 -11 54 -14 65
-7 105 -26 165 -81 25 -24 71 -57 102 -74 67 -38 115 -84 124 -119 3 -14 21
-41 40 -60 44 -45 82 -122 95 -192 16 -87 12 -228 -9 -317 -11 -43 -25 -110
-31 -149 -12 -80 -49 -196 -96 -306 -20 -48 -29 -80 -23 -86 6 -6 -5 -29 -31
-60 -22 -28 -58 -95 -81 -148 -62 -149 -121 -262 -198 -377 -38 -57 -83 -138
-100 -179 -16 -41 -47 -113 -69 -161 l-41 -87 361 -458 c199 -252 379 -479
402 -504 23 -25 143 -155 267 -290 319 -346 311 -337 304 -350 -5 -7 -31 12
-74 52 -40 39 -50 46 -25 19 163 -181 248 -270 264 -275 11 -3 22 -16 26 -28
3 -12 61 -77 127 -145 91 -92 118 -125 109 -134 -8 -8 -44 20 -146 116 -229
217 -407 413 -713 791 -198 245 -503 556 -503 513 0 -19 16 -41 63 -84 42 -39
55 -56 39 -52 -22 6 -22 6 4 -25 104 -125 339 -378 361 -390 16 -7 27 -19 25
-26 -1 -7 18 -35 43 -63 32 -36 43 -54 35 -62 -7 -7 -33 12 -87 64 -68 67 -72
69 -34 22 94 -115 721 -692 752 -692 10 0 20 -9 24 -20 3 -10 28 -39 56 -64
47 -42 61 -66 38 -66 -17 0 -323 259 -519 440 -51 46 -91 77 -89 68 9 -40 170
-205 377 -385 122 -107 222 -199 222 -203 0 -34 -74 16 -292 197 -65 54 -78
61 -78 44 0 -14 13 -27 40 -41 22 -11 40 -27 40 -35 0 -21 -17 -18 -85 15 -33
16 -66 30 -73 30 -18 0 -212 196 -318 320 -117 138 -217 262 -664 825 -204
259 -376 472 -381 473 -5 2 -9 0 -9 -5 0 -4 139 -186 308 -404 169 -218 365
-471 436 -563 70 -92 137 -171 147 -177 11 -5 19 -15 19 -22 0 -6 59 -71 132
-144 96 -96 129 -136 121 -144 -8 -8 -31 7 -83 52 -179 154 -212 192 -510 579
-369 481 -615 799 -620 799 -3 1 -36 -27 -74 -61 -61 -55 -66 -62 -48 -69 12
-4 28 -19 38 -34 14 -21 14 -30 5 -54 -24 -57 -95 -60 -124 -5 l-14 26 -94
-103 c-172 -188 -263 -280 -354 -359 -119 -102 -343 -270 -361 -270 -32 0 -8
29 86 103 112 88 333 281 370 323 l25 28 -30 -19 c-16 -10 -45 -29 -64 -41
-19 -13 -37 -21 -40 -18 -3 3 1 9 9 14 8 5 58 40 110 77 78 57 114 93 200 199
58 72 143 186 189 253 78 115 83 125 71 149 l-12 27 -14 -33 c-8 -21 -25 -38
-46 -47 -21 -8 -57 -44 -98 -97 -35 -45 -130 -150 -210 -233 -80 -83 -205
-214 -279 -293 -74 -78 -140 -142 -147 -142 -32 0 -20 25 40 89 61 65 86 100
51 71 -12 -10 -15 -10 -14 1 0 8 31 41 69 74 52 45 65 62 54 68 -21 12 -17 38
14 88 79 126 80 128 18 61 -83 -89 -114 -129 -128 -168 -14 -41 -33 -46 -23
-6 14 57 40 93 169 235 73 80 152 177 174 214 23 37 51 84 64 103 29 45 -230
-199 -419 -395 -109 -112 -146 -146 -153 -135 -6 9 -2 23 10 40 43 60 186 216
403 438 128 131 245 252 261 269 l28 31 -151 216 c-83 118 -189 272 -234 343
-69 104 -103 145 -183 218 -54 50 -108 97 -118 105 -18 15 -19 14 -4 -15 19
-35 110 -124 191 -184 53 -41 65 -60 41 -68 -16 -5 -221 163 -255 209 -42 57
-61 105 -53 130 5 17 12 19 41 15 l36 -6 -24 27 c-71 81 -84 92 -110 92 -43 0
-55 23 -36 71 15 39 15 43 -4 80 -10 22 -23 39 -28 39 -16 0 -231 -230 -328
-352 -136 -171 -144 -183 -131 -196 6 -6 8 -18 4 -27 -4 -12 -10 -14 -25 -6
-16 9 -28 -3 -95 -103 -106 -157 -156 -256 -156 -310 0 -49 -7 -61 -27 -45 -7
7 -13 31 -13 58 0 81 100 262 274 495 47 64 86 119 86 123 0 3 -7 14 -16 24
-15 17 -17 16 -42 -13 -14 -16 -28 -46 -31 -67 -5 -29 -11 -36 -30 -36 -14 0
-36 -15 -54 -35 -31 -34 -31 -35 -9 -38 22 -3 30 -26 12 -37 -5 -3 -20 -1 -32
6 -19 10 -25 8 -45 -17 -49 -60 -117 -178 -122 -213 -4 -22 -12 -36 -21 -36
-8 0 -24 -26 -38 -60 -26 -65 -29 -71 -37 -63 -3 3 6 36 20 73 14 37 25 76 25
86 0 10 6 22 13 26 6 4 74 100 149 213 76 113 158 234 184 270 33 47 37 55 14
30 -154 -167 -316 -317 -329 -305 -3 4 25 35 63 68 86 77 248 254 328 359 44
59 57 83 49 91 -6 6 -11 20 -11 31 0 16 -13 8 -60 -39 -47 -46 -60 -66 -58
-85 2 -20 -1 -25 -20 -24 -18 1 -43 -24 -110 -110 -159 -203 -204 -275 -262
-426 -22 -59 -42 -95 -51 -95 -21 0 -18 61 5 107 16 33 17 43 6 63 -14 27 -6
48 18 43 12 -3 30 18 59 70 24 41 61 99 83 130 l40 57 -32 5 c-25 4 -33 10
-33 25 0 17 7 20 51 20 l50 0 84 105 c46 58 152 175 236 260 92 93 172 186
203 232 85 130 221 267 363 364 l66 46 -20 34 c-19 33 -18 54 4 54 18 0 48
-32 48 -51 0 -14 13 -10 75 24 41 23 115 64 164 91 84 47 88 51 78 73 -8 17
-7 27 2 36 15 15 47 -4 44 -28 -1 -12 4 -14 15 -9 10 4 58 19 107 35 50 15
128 41 175 58 47 17 93 31 103 31 9 0 17 7 17 16 0 13 6 15 28 9 46 -12 124
-5 180 15 29 11 61 20 71 20 10 0 24 7 31 15 13 16 50 21 50 6z m-1807 -27
c20 -27 17 -51 -9 -61 -27 -10 -50 27 -45 75 2 21 35 13 54 -14z m4743 15 c10
-17 -23 -46 -37 -32 -7 7 -9 19 -6 27 7 18 33 21 43 5z m-5376 -29 c0 -27 -19
-35 -38 -17 -12 13 -13 19 -3 31 16 19 41 10 41 -14z m6585 4 c0 -10 -8 -20
-18 -22 -22 -4 -35 27 -16 39 20 12 34 5 34 -17z m1125 5 c15 -27 -5 -56 -26
-38 -17 14 -18 31 -2 47 16 16 15 16 28 -9z m-4450 -14 c10 -13 10 -19 -5 -35
-23 -25 -32 -25 -45 1 -20 37 23 66 50 34z m1428 3 c15 -15 16 -48 0 -48 -19
0 -47 31 -41 46 6 17 25 18 41 2z m1215 -20 c6 -8 7 -23 3 -33 -6 -18 -8 -18
-28 2 -13 13 -18 28 -14 38 7 19 25 16 39 -7z m627 -3 c0 -12 -28 -35 -44 -35
-8 0 -7 35 1 43 12 13 43 7 43 -8z m-5687 -39 c23 -18 28 -30 25 -56 -4 -44
-26 -51 -34 -11 -4 17 -17 37 -31 46 -20 13 -22 19 -12 31 15 18 19 18 52 -10z
m-288 3 c9 -13 -32 -52 -45 -44 -11 7 -13 38 -3 48 10 11 41 8 48 -4z m6335
-14 c10 -13 10 -19 -5 -35 -23 -25 -32 -25 -45 -1 -21 41 21 71 50 36z m-5676
-14 c9 -15 -23 -36 -36 -23 -5 5 -7 15 -4 21 9 13 33 14 40 2z m-169 -11 c10
-16 -5 -50 -21 -50 -17 0 -28 24 -20 45 6 17 32 20 41 5z m2622 -16 c7 -19
-20 -49 -36 -40 -6 4 -11 18 -11 32 0 17 5 24 20 24 11 0 23 -7 27 -16z m1450
-20 c8 -21 -13 -42 -28 -27 -13 13 -5 43 11 43 6 0 13 -7 17 -16z m-4599 -11
c-4 -22 -22 -20 -26 1 -2 10 3 16 13 16 10 0 15 -7 13 -17z m5812 -13 c0 -13
-7 -20 -20 -20 -13 0 -20 7 -20 20 0 13 7 20 20 20 13 0 20 -7 20 -20z m-1844
0 c8 0 14 -9 14 -20 0 -17 -7 -20 -50 -20 -42 0 -50 3 -50 18 0 27 11 34 44
28 16 -3 35 -6 42 -6z m1229 -30 c0 -11 -14 -16 -52 -18 -47 -3 -53 -1 -53 17
0 24 12 28 64 21 27 -3 41 -10 41 -20z m-1547 -25 c3 -43 -17 -83 -36 -71 -13
8 -17 98 -5 110 18 18 38 -1 41 -39z m3129 30 c2 -6 -3 -19 -10 -29 -12 -17
-15 -17 -30 -2 -9 9 -14 23 -10 32 6 16 44 15 50 -1z m-2507 -16 c14 -26 6
-51 -14 -43 -28 11 -32 64 -6 64 5 0 14 -9 20 -21z m1218 -32 c-5 -31 -26 -32
-40 -2 -10 22 -9 28 2 35 19 12 42 -8 38 -33z m-6144 -16 c8 -13 -21 -34 -39
-27 -25 9 -18 36 9 36 14 0 27 -4 30 -9z m323 -6 c5 -15 -21 -44 -40 -45 -14
0 -19 30 -7 45 16 19 39 19 47 0z m313 -55 c0 -41 -21 -57 -34 -24 -13 34 -7
64 14 64 17 0 20 -7 20 -40z m348 23 c5 -17 -26 -29 -40 -15 -6 6 -7 15 -3 22
9 14 37 9 43 -7z m2270 -23 c4 -38 -14 -63 -28 -40 -11 18 -13 64 -3 74 14 14
28 -1 31 -34z m3356 24 c7 -19 -67 -99 -83 -89 -20 12 -11 40 24 73 40 36 50
39 59 16z m-3004 2 c0 -16 -14 -36 -25 -36 -17 0 -28 17 -20 30 6 10 45 15 45
6z m-3560 -51 c0 -7 -7 -21 -16 -30 -16 -15 -18 -15 -33 0 -15 15 -14 18 8 36
24 20 41 18 41 -6z m7107 1 c20 -17 36 -23 56 -19 32 6 36 -10 6 -31 -12 -8
-18 -19 -15 -25 11 -18 -12 -86 -38 -110 -14 -13 -42 -25 -66 -28 -102 -14
-172 86 -125 177 32 61 129 81 182 36z m-3107 -1 c14 -17 4 -55 -15 -55 -19 0
-37 34 -29 54 8 20 28 21 44 1z m2840 -36 c3 -16 12 -24 25 -24 16 0 20 -7 20
-35 0 -28 -4 -35 -20 -35 -13 0 -21 8 -23 23 -2 12 -8 19 -14 16 -14 -9 -28
15 -28 47 0 46 31 52 40 8z m-6490 12 c0 -6 -5 -13 -10 -16 -15 -9 -43 3 -35
15 8 13 45 13 45 1z m4766 -36 c-3 -9 -14 -15 -23 -13 -22 4 -30 38 -11 49 18
11 43 -15 34 -36z m1212 2 c4 -20 -25 -34 -40 -19 -15 15 -1 44 19 40 10 -2
19 -11 21 -21z m1300 -10 c14 -17 4 -57 -14 -57 -17 0 -37 37 -30 56 7 18 30
18 44 1z m-6523 -17 c0 -18 -33 -26 -47 -12 -6 6 -7 15 -3 22 10 16 50 8 50
-10z m3725 -37 c0 -17 -31 -17 -55 1 -11 8 -16 19 -12 30 6 16 9 16 37 -1 16
-9 30 -23 30 -30z m1430 21 c0 -33 -33 -30 -38 4 -3 17 2 22 17 22 16 0 21 -6
21 -26z m-6145 -4 c11 -18 -7 -60 -25 -60 -28 0 -34 18 -16 45 17 26 31 31 41
15z m208 -3 c10 -25 -5 -68 -22 -65 -17 3 -27 39 -17 64 7 18 32 18 39 1z
m195 -4 c12 -24 4 -43 -18 -43 -24 0 -33 15 -25 40 8 25 31 26 43 3z m5507 -3
c14 -15 16 -23 7 -32 -14 -14 -62 15 -62 37 0 22 34 18 55 -5z m-6325 -26 c0
-27 -21 -32 -40 -9 -10 12 -10 18 0 29 16 21 40 9 40 -20z m1466 6 c8 0 14 -9
14 -20 0 -17 -7 -20 -49 -20 -32 0 -51 5 -54 14 -9 22 15 38 47 32 16 -3 35
-6 42 -6z m4614 -5 c7 -9 9 -19 5 -23 -4 -4 -10 -1 -12 6 -7 17 -27 15 -46 -5
-13 -15 -13 -21 -3 -36 9 -11 11 -30 6 -57 -5 -26 -3 -41 4 -44 7 -3 5 -10 -6
-19 -10 -8 -18 -21 -18 -30 0 -24 -18 -30 -22 -7 -3 20 -5 20 -51 -9 -39 -26
-76 -75 -65 -87 2 -2 37 17 77 41 137 82 199 111 212 98 8 -8 -6 -20 -58 -48
-149 -82 -212 -125 -206 -141 7 -20 -13 -34 -50 -34 -23 0 -51 -22 -140 -113
-151 -152 -273 -328 -292 -419 -3 -16 -11 -28 -18 -28 -31 0 -145 -323 -160
-450 l-6 -45 31 65 c16 36 34 67 39 68 5 2 9 9 9 16 0 18 51 62 79 69 50 12
117 -34 127 -88 11 -61 -45 -125 -108 -125 -32 0 -85 34 -93 59 -3 12 -10 21
-15 21 -12 0 -34 -70 -32 -99 1 -14 -7 -33 -19 -44 -24 -23 -20 -65 12 -132
l19 -40 -4 50 c-3 28 -1 70 2 95 7 43 9 45 40 44 32 -2 89 -31 79 -41 -3 -2
-19 3 -37 12 -42 22 -60 13 -60 -28 0 -32 16 -133 26 -169 7 -22 111 -91 248
-164 l109 -57 66 21 c116 37 193 45 387 40 173 -4 181 -4 161 13 -18 14 -19
19 -8 33 8 9 19 15 25 13 6 -2 31 7 56 22 38 22 59 26 145 29 121 5 200 -12
294 -64 63 -35 64 -35 78 -14 17 24 59 26 85 3 22 -20 23 -42 3 -70 -15 -21
-12 -25 51 -90 37 -37 87 -97 112 -133 25 -36 64 -87 87 -115 63 -75 112 -156
145 -239 30 -75 60 -195 60 -244 l0 -27 19 24 c21 28 41 21 41 -15 0 -13 -11
-73 -26 -132 -20 -85 -27 -150 -34 -317 -5 -115 -19 -273 -30 -350 -29 -199
-99 -568 -111 -580 -6 -6 -14 -4 -23 5 -12 13 -10 40 14 185 25 152 59 403 74
555 l5 55 -48 -100 c-42 -89 -45 -100 -29 -103 17 -3 27 -42 11 -42 -5 0 -16
-7 -26 -14 -13 -10 -24 -54 -44 -187 -15 -96 -27 -195 -27 -221 1 -33 -3 -48
-12 -48 -22 0 -37 -68 -32 -147 5 -78 -9 -89 -21 -16 l-6 38 -28 -48 c-16 -26
-57 -81 -92 -121 -35 -40 -68 -88 -73 -107 l-10 -34 -1 36 c-1 25 7 47 27 71
156 203 172 233 184 366 4 53 17 151 28 217 10 65 17 121 15 123 -1 2 -9 -14
-15 -35 -22 -66 -154 -371 -238 -547 -59 -123 -78 -173 -71 -182 6 -7 9 -25 7
-41 -2 -23 -8 -28 -28 -27 -14 1 -29 -5 -33 -12 -11 -19 -37 -18 -37 1 0 8 11
40 25 71 30 68 30 67 4 59 -17 -6 -20 -3 -17 17 2 18 9 23 30 23 25 -1 31 7
69 95 22 52 44 102 47 110 3 8 -17 -12 -45 -45 -81 -96 -230 -235 -340 -318
-57 -43 -114 -89 -127 -104 -14 -15 -28 -25 -31 -22 -11 11 36 57 148 148
l114 92 -28 29 c-20 19 -29 39 -29 60 l0 31 -30 -17 c-22 -14 -27 -21 -18 -31
7 -9 6 -20 -6 -38 -20 -30 -34 -32 -44 -6 -6 18 -28 5 -186 -110 -98 -72 -180
-128 -182 -126 -3 3 18 25 46 50 28 25 46 48 40 52 -5 3 -10 15 -10 26 0 23
35 26 47 5 6 -11 40 10 148 90 257 192 375 264 488 300 51 16 61 24 88 67 27
44 79 152 79 164 0 3 -28 -21 -62 -53 -90 -83 -200 -162 -330 -237 -164 -95
-205 -114 -220 -99 -16 16 -14 18 132 109 228 143 359 252 484 402 104 126
116 163 24 75 -35 -33 -99 -87 -143 -121 -44 -33 -95 -77 -113 -96 -31 -32
-32 -36 -16 -45 10 -6 15 -16 11 -26 -7 -19 -43 -22 -49 -4 -5 14 -12 9 -125
-84 -84 -70 -168 -121 -242 -149 -45 -17 -78 -42 -171 -133 -120 -117 -235
-209 -308 -245 -59 -30 -171 -57 -268 -66 -68 -6 -82 -4 -94 10 -19 23 -6 30
98 49 214 38 314 100 570 350 l123 121 -53 5 c-45 4 -53 8 -53 25 0 16 9 21
54 28 103 14 138 39 277 197 219 248 360 386 428 420 53 27 62 29 72 16 9 -13
13 -9 22 21 8 28 8 40 0 51 -10 11 -7 17 11 31 57 43 94 438 56 599 -18 74
-42 125 -55 117 -6 -4 -10 5 -10 18 0 23 -84 116 -124 139 -23 13 19 -96 55
-143 23 -30 25 -37 12 -45 -13 -8 -12 -22 6 -109 18 -88 41 -273 41 -326 0
-10 -4 -19 -8 -19 -4 0 -16 59 -26 131 -10 71 -28 178 -42 237 l-23 107 -110
105 c-128 124 -276 234 -306 227 -11 -2 -81 -17 -155 -33 -100 -21 -127 -30
-105 -34 17 -3 30 -11 30 -20 0 -17 -78 -16 -210 5 -49 8 -135 17 -190 20
-137 9 -269 30 -361 59 l-77 25 39 -40 c21 -23 77 -70 124 -105 75 -57 90 -64
130 -64 50 0 101 21 185 75 31 20 55 30 53 23 -7 -20 -121 -94 -177 -115 l-50
-19 59 -36 c50 -32 60 -35 70 -23 21 25 42 18 38 -12 -2 -16 3 -33 11 -39 13
-11 8 -34 -8 -34 -4 0 -63 32 -132 72 -68 39 -149 84 -179 99 -41 20 -105 77
-247 218 -106 105 -194 191 -197 191 -17 0 -287 31 -308 36 -26 5 -28 3 -28
-25 0 -71 -90 -111 -140 -61 -31 31 -27 93 7 120 25 19 37 20 189 18 l162 -3
-35 39 c-45 50 -82 129 -93 203 -14 88 -33 243 -35 288 -2 22 -6 52 -10 68 -4
15 -3 33 3 40 6 6 13 39 17 72 10 78 40 175 77 250 28 55 67 157 89 230 l8 30
-30 -35 c-16 -19 -54 -64 -83 -100 -58 -72 -84 -96 -92 -87 -3 3 50 69 118
147 68 78 146 176 174 218 28 43 76 100 107 127 31 28 116 106 189 174 144
134 205 175 285 191 28 6 62 19 75 29 37 29 105 61 130 61 13 0 30 5 38 10 21
14 36 12 50 -5z m-1474 -6 c10 -17 -23 -46 -37 -32 -7 7 -9 19 -6 27 7 18 33
21 43 5z m-3304 -34 c17 -38 -3 -54 -32 -25 -17 17 -19 24 -9 36 17 20 28 17
41 -11z m2618 -4 c14 -27 13 -41 -3 -41 -19 0 -50 37 -42 49 10 17 33 13 45
-8z m-3080 -26 c0 -19 -34 -20 -49 -2 -8 10 -7 17 1 25 14 14 48 -2 48 -23z
m7205 5 c10 -16 -14 -50 -35 -50 -28 0 -34 19 -14 41 19 21 39 25 49 9z m191
-11 c10 -17 -23 -46 -37 -32 -7 7 -9 19 -6 27 7 18 33 21 43 5z m-1150 -20
c10 -17 -13 -36 -27 -22 -12 12 -4 33 11 33 5 0 12 -5 16 -11z m-6008 -21 c-4
-30 -48 -39 -48 -10 0 24 8 32 32 32 14 0 19 -6 16 -22z m3300 0 c2 -9 -4 -23
-13 -31 -8 -9 -15 -23 -15 -32 0 -8 -7 -18 -16 -22 -19 -7 -38 17 -24 31 6 6
10 19 10 29 0 21 28 48 45 43 6 -1 11 -10 13 -18z m3172 3 c14 -27 13 -41 -3
-41 -19 0 -50 37 -42 49 10 17 33 13 45 -8z m-7030 -32 c0 -24 -23 -21 -28 4
-2 10 3 17 12 17 10 0 16 -9 16 -21z m7848 -59 c3 -33 -12 -55 -32 -47 -16 6
-23 57 -9 71 14 14 38 0 41 -24z m-7259 6 c15 -18 6 -24 -39 -26 -55 -3 -60
-1 -60 20 0 17 7 20 44 20 25 0 48 -6 55 -14z m2599 4 c15 0 22 -6 22 -20 0
-17 -7 -20 -49 -20 -32 0 -51 5 -54 14 -8 19 14 38 38 32 11 -3 30 -6 43 -6z
m4030 -23 c2 -19 -1 -27 -13 -27 -19 0 -30 24 -21 46 9 23 31 11 34 -19z
m-7471 6 c6 -17 -36 -38 -50 -24 -7 7 -6 15 3 26 15 18 41 17 47 -2z m6161 0
c-4 -20 -35 -30 -50 -15 -15 15 0 32 28 32 19 0 25 -5 22 -17z m-2547 -18 c0
-14 -31 -19 -43 -7 -6 6 -7 15 -4 21 8 12 48 0 47 -14z m138 -2 c7 -14 12 -15
24 -5 11 10 17 9 27 -3 7 -8 10 -22 6 -30 -6 -17 -36 -21 -36 -4 0 8 -5 7 -16
-2 -14 -11 -18 -10 -30 6 -15 20 -18 38 -7 48 11 11 21 8 32 -10z m678 5 c13
-18 1 -62 -19 -66 -10 -2 -17 6 -21 25 -5 27 6 53 23 53 4 0 12 -6 17 -12z
m3281 -21 c4 -22 -27 -35 -38 -16 -10 15 7 42 24 36 6 -2 12 -11 14 -20z
m-8112 2 c8 -13 -15 -30 -36 -26 -8 1 -16 10 -18 20 -3 12 3 17 22 17 14 0 28
-5 32 -11z m761 -15 c8 -20 -8 -48 -30 -52 -18 -4 -34 39 -22 57 10 17 45 13
52 -5z m6732 -10 c2 -2 1 -10 -2 -19 -8 -20 -92 -21 -100 -1 -10 24 15 37 58
30 22 -3 42 -8 44 -10z m1214 -2 c19 -20 13 -32 -14 -32 -22 0 -33 16 -25 35
7 20 19 19 39 -3z m-8045 -26 c5 -26 -26 -50 -45 -35 -14 12 -17 41 -6 53 13
13 48 1 51 -18z m7122 -5 c15 -29 12 -41 -9 -41 -20 0 -37 32 -26 50 10 16 23
12 35 -9z m-2730 -26 c0 -19 -34 -20 -49 -2 -8 10 -7 17 1 25 14 14 48 -2 48
-23z m1900 10 c0 -8 -9 -15 -20 -15 -11 0 -20 7 -20 15 0 8 9 15 20 15 11 0
20 -7 20 -15z m-621 -10 c47 -24 56 -80 19 -115 -28 -26 -51 -25 -82 3 -39 34
-43 71 -12 101 29 30 37 31 75 11z m-5939 -30 c0 -16 -35 -21 -44 -6 -8 12 4
21 26 21 10 0 18 -7 18 -15z m8006 4 c10 -17 -13 -36 -27 -22 -12 12 -4 33 11
33 5 0 12 -5 16 -11z m-7238 -25 c2 -11 -5 -31 -15 -43 -15 -19 -21 -20 -36
-9 -17 13 -17 15 -1 46 18 37 47 40 52 6z m6550 4 c3 -13 -3 -18 -22 -18 -27
0 -41 14 -31 31 10 16 49 6 53 -13z m-3331 -55 c-16 -16 -18 -16 -34 0 -17 17
-17 19 2 33 17 12 21 12 34 -1 14 -13 13 -17 -2 -32z m351 30 c-5 -25 -28 -28
-28 -4 0 12 6 21 16 21 9 0 14 -7 12 -17z m1990 -24 c-2 -16 -11 -25 -25 -27
-28 -4 -31 22 -6 50 20 22 36 10 31 -23z m407 20 c5 -14 1 -27 -10 -38 -15
-15 -17 -15 -30 3 -10 13 -11 24 -4 37 13 25 36 24 44 -2z m-977 -39 c3 -33
-12 -55 -32 -47 -16 6 -23 57 -9 71 14 14 38 0 41 -24z m-5993 9 c12 -19 -4
-59 -25 -59 -28 0 -33 16 -14 45 18 27 29 31 39 14z m406 -10 c9 -17 8 -25 -5
-37 -12 -13 -18 -13 -30 -2 -19 15 -20 32 -4 48 17 17 26 15 39 -9z m3529 -33
c10 -13 9 -19 -11 -36 -13 -10 -30 -19 -37 -20 -17 0 -29 33 -14 38 7 2 9 8 6
13 -3 6 -3 17 0 25 6 17 33 7 56 -20z m3634 28 c23 -9 20 -31 -5 -39 -28 -9
-46 9 -29 30 14 17 13 17 34 9z m286 -20 c11 -12 10 -18 -3 -32 -16 -15 -18
-15 -34 0 -13 14 -14 20 -3 32 7 9 16 16 20 16 4 0 13 -7 20 -16z m-860 -54
c-16 -29 -30 -34 -48 -16 -16 16 -15 19 7 37 29 24 57 9 41 -21z m-802 18 c18
-18 14 -38 -7 -38 -23 0 -35 15 -27 35 7 18 18 19 34 3z m-6042 -9 c6 -11 -31
-48 -48 -49 -10 0 -10 44 -1 53 10 11 41 8 49 -4z m7413 -33 c11 -13 11 -17
-2 -22 -31 -12 -72 28 -51 49 8 8 36 -7 53 -27z m-7110 10 c16 -19 10 -71 -8
-71 -17 0 -35 49 -27 70 7 19 20 19 35 1z m6771 -11 c0 -18 -5 -25 -19 -25
-26 0 -36 17 -21 35 19 23 40 18 40 -10z m-6422 -2 c-5 -26 -38 -29 -38 -4 0
15 6 21 21 21 14 0 19 -5 17 -17z m3710 -24 c-3 -24 -33 -48 -44 -36 -4 4 -2
18 4 32 14 31 45 34 40 4z m3460 -2 c2 -12 -3 -17 -17 -17 -12 0 -21 6 -21 13
0 31 32 34 38 4z m-7310 -9 c-4 -30 -48 -39 -48 -10 0 24 8 32 32 32 14 0 19
-6 16 -22z m5228 -9 c7 -12 -15 -31 -28 -23 -4 3 -8 12 -8 20 0 17 26 19 36 3z
m1714 -30 c0 -13 -29 -31 -40 -24 -14 9 -13 38 2 53 10 10 15 9 25 -5 7 -9 13
-20 13 -24z m-3299 6 c0 -5 -9 -11 -21 -13 -20 -3 -27 8 -13 22 10 9 34 3 34
-9z m3014 -25 c0 -28 -4 -35 -20 -35 -13 0 -21 8 -23 23 -5 34 5 54 25 50 13
-2 18 -13 18 -38z m1413 8 c3 -13 -3 -18 -22 -18 -27 0 -41 14 -31 31 10 16
49 6 53 -13z m-8648 -1 c0 -24 -26 -51 -44 -44 -19 7 -22 43 -3 50 24 10 47 7
47 -6z m6330 -6 c0 -11 -9 -21 -22 -24 -30 -8 -40 1 -28 24 14 25 50 25 50 0z
m280 -7 c0 -33 -33 -30 -38 4 -3 17 2 22 17 22 16 0 21 -6 21 -26z m1050 -24
c0 -33 -24 -50 -42 -32 -8 8 -8 18 0 37 16 36 42 33 42 -5z m405 10 c8 -26 -1
-40 -26 -40 -13 0 -19 7 -19 23 0 40 34 53 45 17z m-3087 -2 c8 -8 8 -15 1
-24 -12 -14 -49 -7 -49 10 0 27 27 35 48 14z m-5211 -15 c6 -17 -36 -38 -50
-24 -7 7 -6 15 3 26 15 18 41 17 47 -2z m6922 -12 c15 -26 -21 -60 -44 -41
-18 15 -19 32 -3 48 17 17 36 15 47 -7z m-2694 -1 c11 -18 -7 -60 -25 -60 -28
0 -34 18 -16 45 17 26 31 31 41 15z m403 -21 c2 -16 -3 -29 -12 -32 -20 -8
-39 18 -31 43 9 29 39 21 43 -11z m-3958 1 c0 -13 -7 -20 -20 -20 -19 0 -27
20 -13 33 13 14 33 6 33 -13z m7005 10 c4 -6 4 -18 1 -26 -4 -12 -10 -13 -26
-4 -11 6 -20 17 -20 25 0 17 36 20 45 5z m-3175 -44 c22 -38 -2 -80 -49 -84
-81 -8 -99 95 -21 120 24 8 54 -7 70 -36z m-4143 18 c8 -20 -8 -48 -30 -52
-18 -4 -34 39 -22 57 10 17 45 13 52 -5z m188 -45 c0 -27 -4 -34 -20 -34 -24
0 -33 38 -14 61 19 23 34 11 34 -27z m-617 -2 c4 -20 -25 -34 -40 -19 -15 15
-1 44 19 40 10 -2 19 -11 21 -21z m7438 -8 c10 -17 -13 -36 -27 -22 -12 12 -4
33 11 33 5 0 12 -5 16 -11z m-43 -13 c3 -8 -1 -22 -9 -33 -14 -17 -14 -17 -28
0 -18 23 -10 47 14 47 10 0 20 -6 23 -14z m1230 8 c10 -10 -12 -44 -28 -44
-18 0 -28 17 -21 35 5 15 37 20 49 9z m-2785 -27 c2 -12 -3 -17 -17 -17 -12 0
-21 6 -21 13 0 31 32 34 38 4z m-5008 -23 c11 -12 10 -18 -3 -32 -16 -15 -18
-15 -33 0 -19 18 -12 48 9 48 8 0 20 -7 27 -16z m4128 -6 c-4 -30 -48 -39 -48
-10 0 10 3 22 7 25 3 4 15 7 25 7 14 0 19 -6 16 -22z m-4560 -31 c4 -30 -21
-48 -40 -29 -8 8 -8 18 0 38 15 31 36 27 40 -9z m8592 12 c9 -15 8 -24 -1 -35
-11 -13 -14 -13 -27 -1 -9 9 -11 23 -7 36 8 27 21 27 35 0z m-2392 -11 c3 -13
-3 -18 -22 -18 -27 0 -41 14 -31 31 10 16 49 6 53 -13z m-5091 -19 c14 -14 6
-39 -12 -39 -18 0 -28 17 -21 35 6 18 18 19 33 4z m4508 -9 c8 -25 -1 -40 -25
-40 -22 0 -30 19 -18 43 12 23 35 22 43 -3z m760 0 c0 -18 -33 -26 -47 -12 -6
6 -7 15 -3 22 10 16 50 8 50 -10z m1035 5 c0 -12 -28 -35 -44 -35 -8 0 -7 35
1 43 12 13 43 7 43 -8z m-7292 -28 c2 -10 -3 -17 -12 -17 -18 0 -29 16 -21 31
9 14 29 6 33 -14z m3628 -9 c8 -12 -21 -38 -43 -38 -16 0 -17 22 -1 38 15 15
35 15 44 0z m2389 -9 c8 -11 -27 -49 -45 -49 -11 0 -14 43 -3 53 10 11 41 8
48 -4z m1634 -8 c8 -14 6 -22 -8 -35 -9 -9 -20 -16 -24 -16 -12 0 -27 39 -21
54 8 22 41 20 53 -3z m-4499 -9 c0 -28 -11 -34 -32 -15 -25 22 -23 33 7 33 18
0 25 -5 25 -18z m3178 -41 c-4 -46 -30 -49 -39 -4 -7 35 5 55 28 46 9 -4 13
-17 11 -42z m346 30 c8 -12 -28 -51 -48 -51 -21 0 -20 15 1 40 18 21 38 26 47
11z m-7218 -12 c6 -11 -31 -48 -48 -49 -10 0 -10 44 -1 53 10 11 41 8 49 -4z
m4528 -11 c13 -22 -14 -54 -38 -45 -16 6 -22 48 -9 61 11 11 35 3 47 -16z
m-4216 -52 c-4 -42 -30 -40 -42 2 -7 26 -6 36 4 42 22 14 41 -10 38 -44z
m3882 40 c18 -23 9 -61 -15 -61 -16 0 -21 8 -23 38 -3 40 14 51 38 23z m-3542
-13 c-5 -26 -38 -29 -38 -4 0 15 6 21 21 21 14 0 19 -5 17 -17z m7010 -21 c2
-23 -1 -32 -12 -32 -19 0 -40 36 -32 57 11 27 41 10 44 -25z m-7780 11 c-2
-10 -13 -19 -26 -21 -17 -3 -22 2 -22 17 0 16 6 21 26 21 19 0 25 -5 22 -17z
m6412 -13 c0 -24 -26 -38 -42 -22 -16 16 -2 42 22 42 13 0 20 -7 20 -20z
m1649 -9 c14 -9 9 -41 -7 -41 -4 0 -17 7 -28 15 -16 13 -17 16 -4 25 18 12 21
12 39 1z m658 -6 c2 -6 -3 -19 -10 -29 -12 -17 -15 -17 -30 -2 -9 9 -14 23
-10 32 6 16 44 15 50 -1z m-1637 -49 c0 -27 -18 -46 -36 -39 -19 7 -18 32 2
54 20 22 34 16 34 -15z m404 11 c8 -12 7 -21 -6 -33 -20 -20 -38 -11 -38 20 0
39 23 46 44 13z m-2437 -7 c2 -8 -1 -22 -7 -30 -8 -13 -11 -13 -26 2 -10 9
-14 24 -10 33 7 20 40 16 43 -5z m1733 -1 c15 -27 -5 -56 -26 -38 -22 18 -16
59 7 59 5 0 13 -9 19 -21z m-5222 -43 c-2 -13 -10 -21 -23 -21 -23 0 -33 34
-14 45 20 13 40 -1 37 -24z m2387 14 c0 -18 -33 -26 -47 -12 -6 6 -7 15 -3 22
10 16 50 8 50 -10z m-3555 -4 c0 -8 -5 -18 -11 -22 -14 -8 -33 11 -25 25 10
16 36 13 36 -3z m7696 -27 c10 -17 -23 -46 -37 -32 -7 7 -9 19 -6 27 7 18 33
21 43 5z m-4396 -25 c14 -36 13 -44 -8 -44 -24 0 -45 43 -29 59 17 17 27 13
37 -15z m2269 -3 c15 -26 -21 -60 -44 -41 -15 13 -20 42 -8 53 13 13 42 7 52
-12z m1441 -10 c15 -29 12 -41 -9 -41 -24 0 -45 25 -37 45 8 21 33 19 46 -4z
m-5880 -11 c0 -24 -26 -38 -42 -22 -8 8 -8 15 2 27 18 21 40 19 40 -5z m6335
9 c9 -13 -32 -52 -45 -44 -11 7 -13 38 -3 48 10 11 41 8 48 -4z m-7297 -11
c17 -17 15 -48 -4 -55 -23 -8 -38 12 -30 41 7 29 16 32 34 14z m-397 -10 c-1
-5 -1 -17 -1 -27 0 -22 -29 -36 -43 -22 -15 15 9 63 29 59 8 -2 15 -6 15 -10z
m7579 -12 c0 -29 -24 -41 -40 -20 -10 11 -10 17 0 29 19 23 40 18 40 -9z m425
-22 c0 -27 -4 -39 -15 -39 -18 0 -31 60 -16 75 18 18 31 4 31 -36z m349 27 c9
-15 -23 -36 -36 -23 -5 5 -7 15 -4 21 9 13 33 14 40 2z m-7070 -24 c7 -11 7
-20 0 -27 -15 -15 -44 -2 -44 19 0 35 25 39 44 8z m2746 6 c0 -17 -58 -63 -79
-63 -16 0 -31 27 -25 44 3 9 17 16 29 16 13 0 27 5 30 10 11 17 45 11 45 -7z
m320 -59 c0 -31 -20 -41 -37 -19 -16 24 -17 62 0 68 16 6 37 -21 37 -49z m338
29 c-5 -26 -38 -29 -38 -4 0 15 6 21 21 21 14 0 19 -5 17 -17z m4109 6 c14
-14 4 -59 -13 -59 -17 0 -37 37 -30 56 6 17 28 18 43 3z m-7140 -14 c2 -6 -11
-21 -28 -34 -25 -19 -33 -21 -40 -10 -12 20 -11 25 7 44 18 17 55 17 61 0z
m4546 -7 c7 -20 -12 -48 -27 -42 -17 7 -28 32 -20 45 8 13 42 11 47 -3z m1750
-7 c6 -26 -7 -45 -27 -38 -16 6 -22 38 -9 50 12 13 31 7 36 -12z m-3751 -15
c3 -14 2 -30 -2 -37 -12 -19 -30 0 -30 32 0 36 26 40 32 5z m2566 -17 c2 -10
-6 -19 -19 -22 -31 -8 -41 1 -28 24 12 23 42 22 47 -2z m902 -5 c0 -19 -28
-30 -42 -16 -8 8 -8 15 1 26 14 17 41 10 41 -10z m-627 -21 c4 -2 7 -11 7 -19
0 -17 -95 -20 -105 -4 -14 22 16 41 54 34 20 -4 39 -9 44 -11z m-5940 -29 c-3
-8 -12 -14 -19 -14 -20 0 -30 30 -13 40 17 11 40 -7 32 -26z m6026 7 c8 -14 6
-22 -8 -35 -24 -22 -38 -20 -46 4 -13 41 35 68 54 31z m212 -18 c12 -33 -2
-53 -26 -33 -23 19 -18 60 7 60 5 0 13 -12 19 -27z m-6857 -3 c17 -16 -6 -30
-49 -30 -46 0 -61 11 -51 36 4 11 16 13 48 8 24 -4 47 -10 52 -14z m-287 -16
c3 -8 1 -20 -5 -26 -15 -15 -43 8 -35 28 7 19 32 18 40 -2z m841 -22 c2 -14
-3 -25 -13 -29 -21 -7 -34 12 -27 39 6 26 36 19 40 -10z m8068 17 c10 -17 -23
-46 -37 -32 -7 7 -9 19 -6 27 7 18 33 21 43 5z m-4756 -23 c0 -8 -6 -19 -14
-25 -10 -9 -17 -7 -27 5 -11 14 -10 18 5 30 21 15 36 10 36 -10z m-532 -3 c5
-18 -45 -40 -60 -25 -6 6 -8 18 -4 27 7 19 57 17 64 -2z m-3969 -7 c10 -12 8
-17 -8 -25 -26 -15 -41 -14 -41 2 0 14 19 37 31 37 4 0 12 -6 18 -14z m8572
-7 c8 -15 8 -24 0 -32 -14 -14 -57 25 -47 42 11 18 34 13 47 -10z m-4855 0 c7
-12 -15 -31 -28 -23 -4 3 -8 12 -8 20 0 17 26 19 36 3z m2089 -35 c0 -27 -4
-39 -15 -39 -18 0 -31 60 -16 75 18 18 31 4 31 -36z m349 27 c8 -12 -21 -34
-34 -26 -17 11 -11 35 9 35 11 0 22 -4 25 -9z m1526 -17 c11 -12 10 -18 -3
-32 -16 -15 -18 -15 -34 0 -13 14 -14 20 -3 32 7 9 16 16 20 16 4 0 13 -7 20
-16z m788 -6 c4 -21 -25 -49 -43 -42 -21 8 -19 41 3 53 21 13 36 9 40 -11z
m-3570 0 c16 -16 15 -48 -2 -48 -20 0 -39 27 -32 45 7 18 18 19 34 3z m-4538
-19 c21 -37 -28 -69 -49 -32 -11 21 3 53 24 53 8 0 19 -9 25 -21z m6238 -27
c2 -23 -1 -32 -12 -32 -19 0 -40 36 -32 57 11 27 41 10 44 -25z m-2343 -17 c0
-13 -8 -21 -22 -23 -17 -3 -23 2 -23 16 0 10 3 22 7 26 13 13 38 1 38 -19z
m3470 -5 c8 -13 -13 -40 -30 -40 -15 0 -28 27 -19 41 7 12 41 11 49 -1z
m-5717 -23 c4 -21 -25 -34 -40 -19 -8 8 -8 16 2 27 16 19 34 15 38 -8z m1460
-4 c-4 -20 -18 -26 -37 -14 -18 12 -5 31 20 31 14 0 19 -6 17 -17z m5530 -6
c4 -22 -27 -35 -38 -16 -10 15 7 42 24 36 6 -2 12 -11 14 -20z m-7838 -17 c0
-24 -26 -38 -42 -22 -16 16 -2 42 22 42 13 0 20 -7 20 -20z m7625 -20 c0 -43
-29 -55 -39 -16 -8 32 3 58 23 54 11 -2 16 -14 16 -38z m-8026 16 c14 -17 4
-46 -15 -46 -18 0 -28 24 -20 45 7 19 20 19 35 1z m655 -15 c16 -29 13 -41
-10 -41 -17 0 -37 37 -30 56 9 22 24 17 40 -15z m3244 1 c2 -14 12 -22 30 -24
16 -2 27 -9 27 -18 0 -11 -12 -15 -50 -15 -47 0 -50 1 -53 28 -6 49 39 78 46
29z m3509 -16 c-4 -9 -13 -16 -21 -16 -19 0 -29 30 -15 47 11 12 14 12 27 -1
8 -8 12 -22 9 -30z m212 28 c2 -2 1 -10 -2 -19 -5 -10 -20 -15 -51 -15 -48 0
-60 8 -50 35 6 14 15 16 53 10 25 -4 48 -9 50 -11z m-956 -12 c23 -25 4 -46
-27 -30 -18 9 -19 9 -9 -3 31 -39 15 -105 -32 -124 -93 -39 -162 71 -87 139
15 13 32 17 61 14 22 -2 39 -1 39 2 -2 26 32 28 55 2z m-5461 -9 c24 -28 27
-47 13 -81 -24 -56 -96 -55 -120 1 -21 51 7 97 60 97 18 0 38 -8 47 -17z
m4866 -6 c2 -10 -3 -17 -12 -17 -9 0 -16 -4 -16 -10 0 -5 -7 -10 -15 -10 -18
0 -20 31 -3 48 17 17 42 11 46 -11z m1842 -7 c12 -23 6 -40 -15 -40 -13 0 -25
21 -25 46 0 21 28 17 40 -6z m-8102 -7 c5 -17 -26 -29 -40 -15 -6 6 -7 15 -3
22 9 14 37 9 43 -7z m287 -7 c11 -8 16 -19 12 -30 -6 -15 -9 -15 -37 -1 -30
15 -36 26 -23 38 10 11 27 8 48 -7z m6051 3 c3 -6 -1 -18 -9 -27 -13 -13 -19
-13 -32 -2 -12 10 -13 16 -4 26 14 17 35 18 45 3z m232 -32 c3 -32 0 -38 -14
-35 -18 3 -38 54 -28 70 3 5 13 8 22 6 12 -2 18 -15 20 -41z m345 37 c9 -10
-4 -34 -18 -34 -17 0 -28 17 -20 30 7 11 28 13 38 4z m-3793 -29 c9 -11 10
-19 3 -26 -14 -14 -43 0 -43 22 0 23 23 25 40 4z m1313 -7 c6 -8 7 -23 3 -33
-6 -18 -8 -18 -28 2 -13 13 -18 28 -14 38 7 19 25 16 39 -7z m4007 -13 c0 -19
-46 -20 -53 -1 -3 7 -1 18 5 24 14 14 48 -3 48 -23z m-5036 16 c10 -16 -5 -41
-24 -41 -28 0 -36 21 -15 37 22 15 32 16 39 4z m2246 -11 c12 -23 6 -40 -15
-40 -17 0 -38 36 -30 50 10 17 34 11 45 -10z m1708 -29 c3 -26 0 -32 -14 -29
-27 5 -40 33 -24 52 19 24 35 14 38 -23z m-8021 -36 c5 -15 -21 -44 -40 -45
-14 0 -19 30 -7 45 16 19 39 19 47 0z m8781 -12 c-5 -25 -28 -28 -28 -4 0 12
6 21 16 21 9 0 14 -7 12 -17z m-8468 -40 c0 -37 -23 -73 -47 -73 -15 0 -18 46
-3 55 6 3 10 17 10 31 0 17 5 24 20 24 16 0 20 -7 20 -37z m348 20 c5 -17 -26
-29 -40 -15 -6 6 -7 15 -3 22 9 14 37 9 43 -7z m3662 -9 c0 -19 -28 -30 -42
-16 -8 8 -8 15 1 26 14 17 41 10 41 -10z m260 1 c0 -9 -7 -18 -16 -22 -18 -7
-39 11 -30 26 11 17 46 13 46 -4z m-2576 -33 c-6 -9 -21 -18 -33 -20 -29 -5
-28 32 2 45 28 14 46 -1 31 -25z m6986 22 c11 -12 10 -18 -3 -32 -16 -15 -18
-15 -34 0 -13 14 -14 20 -3 32 7 9 16 16 20 16 4 0 13 -7 20 -16z m-7892 -16
c16 -16 15 -30 -2 -53 -13 -18 -14 -17 -31 8 -14 22 -15 30 -5 42 15 18 22 19
38 3z m2857 -23 c14 -13 25 -35 25 -48 0 -34 -36 -77 -66 -77 -17 0 -24 -5
-24 -20 0 -13 -7 -20 -19 -20 -26 0 -35 16 -18 31 11 11 10 16 -5 31 -28 28
-24 82 8 107 35 28 69 26 99 -4z m2164 -1 c2 -2 1 -10 -2 -19 -5 -10 -20 -15
-51 -15 -47 0 -62 10 -52 37 5 12 15 14 54 8 26 -4 49 -9 51 -11z m2206 6 c8
-13 -13 -40 -31 -40 -14 0 -19 31 -7 43 10 10 31 8 38 -3z m-3000 -25 c0 -30
-39 -27 -43 3 -3 20 0 23 20 20 15 -2 23 -10 23 -23z m3374 -19 c20 -24 -13
-32 -45 -11 -20 13 -23 19 -14 30 13 16 37 8 59 -19z m-5054 11 c19 -15 13
-37 -9 -37 -18 0 -39 27 -31 40 8 13 17 13 40 -3z m3997 -12 c9 -19 9 -28 0
-37 -16 -16 -57 23 -49 46 10 24 36 19 49 -9z m476 8 c-2 -10 -13 -19 -26 -21
-17 -3 -22 2 -22 17 0 16 6 21 26 21 19 0 25 -5 22 -17z m-3094 -38 c11 -8 16
-21 12 -30 -5 -14 -8 -14 -36 0 -33 17 -41 45 -12 45 9 0 25 -7 36 -15z m-936
-17 c-2 -13 -10 -23 -18 -23 -8 0 -16 10 -18 23 -3 17 2 22 18 22 16 0 21 -5
18 -22z m-618 -12 c0 -20 -19 -31 -32 -18 -6 6 -7 15 -4 21 10 16 36 13 36 -3z
m-2681 -27 c18 -53 -8 -69 -34 -19 -20 38 -19 50 4 50 12 0 23 -11 30 -31z
m4048 15 c7 -20 -17 -37 -34 -23 -15 13 -6 39 13 39 8 0 17 -7 21 -16z m-2622
-14 c0 -18 -43 -26 -57 -12 -16 16 2 33 30 30 16 -2 27 -9 27 -18z m-1038 -6
c8 -21 -23 -52 -38 -37 -14 14 -2 53 17 53 8 0 17 -7 21 -16z m228 -10 c0 -12
-8 -20 -22 -22 -17 -3 -23 2 -23 16 0 20 16 33 35 28 6 -2 10 -11 10 -22z
m7110 1 c0 -5 -10 -11 -22 -13 -16 -2 -23 2 -23 13 0 11 7 15 23 13 12 -2 22
-7 22 -13z m-3573 -6 c11 -6 26 -26 34 -45 38 -91 -78 -165 -146 -92 -29 32
-27 92 5 123 26 27 72 33 107 14z m-4220 -24 c9 -20 9 -28 -1 -38 -18 -18 -56
29 -40 49 17 20 28 17 41 -11z m7346 -2 c5 -17 -26 -29 -40 -15 -6 6 -7 15 -3
22 9 14 37 9 43 -7z m-7921 -10 c5 -15 -34 -36 -53 -29 -21 8 -17 25 9 36 26
10 39 8 44 -7z m9121 -5 c8 -8 8 -15 1 -24 -12 -14 -49 -7 -49 10 0 27 27 35
48 14z m-8734 -50 c-12 -40 -44 -52 -44 -16 0 13 7 34 16 47 23 32 40 13 28
-31z m7210 -1 c7 -29 -9 -44 -29 -27 -15 12 -20 41 -9 53 11 10 32 -4 38 -26z
m541 23 c11 -18 -7 -60 -25 -60 -28 0 -34 18 -16 45 17 26 31 31 41 15z m403
-21 c2 -16 -3 -29 -12 -32 -20 -8 -39 18 -31 43 9 29 39 21 43 -11z m-4188 1
c0 -24 -26 -38 -42 -22 -8 8 -8 15 2 27 18 21 40 19 40 -5z m-3350 -70 c0 -13
-7 -20 -20 -20 -13 0 -20 7 -20 20 0 13 7 20 20 20 13 0 20 -7 20 -20z m2525
-15 c0 -13 -8 -21 -22 -23 -17 -3 -23 2 -23 16 0 10 3 22 7 26 13 13 38 1 38
-19z m-2166 6 c23 -15 5 -44 -21 -36 -31 10 -42 21 -34 34 9 13 36 14 55 2z
m-981 -23 c2 -12 -7 -18 -38 -23 -45 -8 -73 6 -63 31 8 22 97 15 101 -8z
m3712 -7 c0 -27 -19 -36 -37 -18 -18 18 -9 37 18 37 12 0 19 -7 19 -19z
m-3415 -22 c9 -28 -9 -46 -30 -29 -8 7 -15 21 -15 31 0 26 37 25 45 -2z m8120
-4 c0 -13 -8 -21 -22 -23 -17 -3 -23 2 -23 16 0 10 3 22 7 26 13 13 38 1 38
-19z m-7129 -54 c-9 -14 -33 -14 -41 -1 -4 6 -1 18 6 26 11 13 14 13 27 0 8
-8 11 -19 8 -25z m6157 27 c7 -21 -4 -38 -23 -38 -23 0 -34 16 -26 35 7 18 43
20 49 3z m1345 -52 c-2 -12 -10 -21 -18 -21 -16 0 -25 28 -16 52 9 23 38 -4
34 -31z m-9064 8 c26 -10 20 -44 -8 -44 -28 0 -40 14 -32 35 6 16 16 18 40 9z
m-236 -28 c2 -10 -1 -23 -8 -30 -14 -14 -41 19 -33 40 8 20 37 13 41 -10z
m8118 12 c8 -12 -21 -38 -43 -38 -17 0 -17 37 0 43 21 9 36 7 43 -5z m-3676
-9 c0 -20 -21 -49 -36 -49 -20 0 -29 27 -14 45 14 17 50 20 50 4z m78 -12 c4
-21 -27 -35 -38 -17 -12 19 0 42 19 38 9 -2 17 -11 19 -21z m1679 6 c6 -16
-30 -34 -46 -23 -21 12 -5 42 21 38 12 -2 23 -8 25 -15z m-2347 -18 c16 -20 1
-38 -23 -29 -17 6 -22 25 -10 37 10 11 19 8 33 -8z m4624 -27 c13 -22 -14 -54
-38 -45 -16 6 -22 48 -9 61 11 11 35 3 47 -16z m-7896 0 c30 -30 -4 -77 -41
-57 -29 17 -15 69 18 69 6 0 16 -5 23 -12z m457 -23 c0 -23 -34 -33 -46 -14
-10 17 9 41 30 37 9 -2 16 -12 16 -23z m90 -1 c11 -17 13 -30 7 -36 -14 -14
-62 19 -62 43 0 28 35 24 55 -7z m7083 -16 c4 -21 -25 -49 -43 -42 -21 8 -19
41 3 53 21 13 36 9 40 -11z m-3341 -14 c3 -8 -2 -23 -11 -32 -15 -15 -17 -15
-32 0 -21 21 -11 48 16 48 11 0 23 -7 27 -16z m-107 -39 c0 -39 -24 -54 -40
-25 -13 24 -13 43 1 57 19 19 39 3 39 -32z m1826 34 c9 -15 -11 -33 -30 -26
-9 4 -13 13 -10 22 7 17 30 20 40 4z m-5855 -18 c18 -14 21 -23 13 -31 -16
-16 -64 8 -64 32 0 23 22 23 51 -1z m3405 -6 c4 -8 0 -22 -7 -31 -11 -13 -14
-13 -27 0 -17 17 -9 46 13 46 9 0 18 -7 21 -15z m-3979 -28 c13 -28 1 -52 -21
-44 -20 8 -22 67 -3 67 8 0 19 -11 24 -23z m8720 3 c2 -8 -1 -22 -7 -30 -8
-13 -11 -13 -26 2 -10 9 -14 24 -10 33 7 20 40 16 43 -5z m-3381 -5 c8 -20
-13 -45 -37 -45 -24 0 -25 35 -1 49 24 14 32 13 38 -4z m1264 -36 c15 -26 6
-49 -19 -49 -24 0 -34 25 -21 51 14 25 27 24 40 -2z m-1790 -4 c19 -23 -1 -40
-29 -26 -22 12 -26 23 -14 34 11 12 30 8 43 -8z m3557 3 c13 -18 1 -62 -19
-66 -20 -4 -33 44 -17 64 14 17 24 18 36 2z m-620 -42 c-4 -9 -13 -16 -21 -16
-19 0 -29 30 -15 47 11 12 14 12 27 -1 8 -8 12 -22 9 -30z m-7129 7 c-3 -31
-34 -44 -44 -19 -7 19 12 46 33 46 10 0 13 -9 11 -27z m3402 3 c0 -8 -5 -18
-10 -21 -17 -11 -40 3 -34 20 8 19 44 20 44 1z m-3790 -25 c0 -33 -16 -49 -32
-33 -14 14 -1 62 17 62 10 0 15 -10 15 -29z m4270 -37 c0 -14 -21 -19 -33 -7
-9 9 13 34 24 27 5 -3 9 -12 9 -20z m1155 -14 c0 -47 -30 -55 -40 -11 -8 36 1
53 23 49 12 -2 17 -14 17 -38z m2935 5 c0 -19 -46 -20 -53 -1 -3 7 -1 18 5 24
14 14 48 -3 48 -23z m-3554 -20 c-7 -20 -25 -16 -40 8 -8 13 -7 20 4 27 20 12
45 -12 36 -35z m2824 19 c0 -15 -26 -43 -41 -44 -14 0 -19 33 -8 46 16 19 49
18 49 -2z m-7382 -20 c29 -20 30 -74 2 -99 -42 -38 -110 -9 -110 47 0 56 60
86 108 52z m7693 -10 c11 -31 3 -64 -16 -64 -20 0 -32 70 -14 81 19 12 18 12
30 -17z m-1316 -15 c0 -15 -7 -25 -18 -27 -22 -4 -33 24 -17 43 18 21 35 13
35 -16z m1663 14 c-5 -26 -38 -29 -38 -4 0 15 6 21 21 21 14 0 19 -5 17 -17z
m-4082 -30 c7 -28 -8 -48 -29 -40 -18 7 -28 52 -14 66 15 15 36 2 43 -26z
m1425 7 c24 -14 25 -40 0 -40 -22 0 -45 25 -36 40 8 13 12 13 36 0z m-5991
-19 c0 -30 -11 -51 -25 -51 -21 0 -26 16 -15 44 11 30 40 35 40 7z m8398 2
c-5 -25 -28 -28 -28 -4 0 12 6 21 16 21 9 0 14 -7 12 -17z m697 -18 c0 -39
-31 -48 -41 -11 -7 30 2 48 24 44 11 -2 17 -13 17 -33z m-5125 -4 c0 -20 -36
-36 -46 -20 -10 17 5 39 26 39 13 0 20 -7 20 -19z m3388 -24 c2 -19 -1 -27
-13 -27 -19 0 -30 24 -21 46 9 23 31 11 34 -19z m-1178 -22 c0 -13 -21 -25
-46 -25 -18 0 -18 15 1 34 17 17 45 11 45 -9z m-4755 -55 c0 -42 -3 -55 -15
-55 -11 0 -16 14 -18 58 -3 52 -1 58 15 55 15 -3 18 -13 18 -58z m4265 47 c0
-8 -3 -17 -7 -20 -9 -9 -34 13 -27 24 8 14 34 11 34 -4z m-2940 -20 c0 -16
-20 -37 -36 -37 -14 0 -27 28 -18 41 8 14 54 11 54 -4z m3778 -9 c17 -17 15
-39 -5 -54 -32 -23 -60 25 -31 54 7 7 15 12 18 12 3 0 11 -5 18 -12z m-2165
-14 c9 -10 -4 -34 -18 -34 -17 0 -28 17 -20 30 7 11 28 13 38 4z m5032 -40 c0
-10 -8 -20 -18 -22 -22 -4 -35 27 -16 39 20 12 34 5 34 -17z m-4367 -33 c-2
-9 -11 -17 -21 -19 -21 -4 -35 27 -17 38 19 12 42 0 38 -19z m3680 17 c16 -16
15 -48 -2 -48 -20 0 -39 27 -32 45 7 18 18 19 34 3z m-3588 -19 c0 -15 -5 -20
-22 -17 -34 5 -37 38 -4 38 20 0 26 -5 26 -21z m-4113 -6 c5 -15 -54 -46 -74
-39 -22 9 -11 39 17 47 33 9 52 7 57 -8z m3529 -19 c8 -29 -7 -49 -30 -41 -19
7 -21 38 -4 55 18 18 27 15 34 -14z m-3998 -59 c12 -69 7 -83 -19 -59 -24 21
-36 99 -19 120 18 21 26 8 38 -61z m3596 66 c10 -15 -12 -61 -29 -61 -21 0
-29 24 -15 49 11 22 35 28 44 12z m2801 -22 c0 -28 -29 -38 -39 -13 -7 19 11
47 28 41 6 -2 11 -14 11 -28z m1200 16 c0 -5 -10 -11 -22 -13 -16 -2 -23 2
-23 13 0 11 7 15 23 13 12 -2 22 -7 22 -13z m-7866 -61 c-15 -18 -39 -6 -39
20 0 34 13 40 33 15 13 -16 14 -25 6 -35z m8619 14 c8 -8 8 -15 1 -24 -12 -14
-49 -7 -49 10 0 27 27 35 48 14z m-3464 -39 c-3 -5 -14 -9 -25 -9 -21 0 -26
26 -6 33 15 5 39 -12 31 -24z m2481 11 c11 -18 -7 -60 -25 -60 -28 0 -34 18
-16 45 17 26 31 31 41 15z m403 -21 c2 -16 -3 -29 -12 -32 -20 -8 -39 18 -31
43 9 29 39 21 43 -11z m-5334 -10 c-8 -14 -34 -11 -34 4 0 8 3 17 7 20 9 9 34
-13 27 -24z m6163 -3 c-9 -23 -37 -20 -37 3 0 21 20 33 34 20 5 -4 6 -15 3
-23z m-613 -16 c18 -17 -7 -30 -55 -30 -41 0 -49 3 -49 18 0 10 3 22 7 25 8 8
85 -3 97 -13z m-3727 -6 c3 -8 -2 -23 -11 -32 -15 -15 -17 -15 -32 -1 -14 15
-14 18 1 33 21 20 34 20 42 0z m1381 -6 c3 -13 -3 -18 -22 -18 -20 0 -26 5
-26 21 0 15 5 20 22 17 13 -2 24 -11 26 -20z m-97 -14 c11 -14 9 -19 -11 -34
-14 -10 -28 -16 -32 -14 -12 8 -10 38 4 52 16 16 23 15 39 -4z m2729 1 c14
-17 10 -47 -7 -52 -15 -5 -36 34 -29 53 7 18 20 18 36 -1z m-3617 -26 c-2 -18
5 -29 27 -41 58 -33 61 -98 8 -143 -39 -33 -70 -32 -110 4 -40 35 -44 88 -10
124 12 13 22 27 22 32 0 15 43 56 54 52 6 -2 10 -15 9 -28z m405 -2 c3 -21 -1
-27 -17 -27 -25 0 -34 14 -26 41 10 29 39 20 43 -14z m800 -30 c3 -31 0 -37
-16 -37 -14 0 -21 9 -26 31 -7 37 0 51 22 47 12 -2 18 -15 20 -41z m342 23 c0
-13 -7 -20 -20 -20 -19 0 -27 20 -13 33 13 14 33 6 33 -13z m-6616 -6 c23 -9
20 -44 -3 -44 -23 0 -35 15 -27 35 6 17 8 17 30 9z m6508 -21 c23 -20 24 -80
1 -105 -20 -23 -80 -24 -105 -1 -23 20 -24 80 -1 105 20 23 80 24 105 1z
m1933 -18 c0 -13 -8 -21 -22 -23 -17 -3 -23 2 -23 16 0 10 3 22 7 26 13 13 38
1 38 -19z m-1377 -17 c-4 -38 -22 -47 -38 -18 -15 28 -6 50 20 50 18 0 21 -5
18 -32z m-4638 -19 c0 -23 -28 -26 -37 -3 -6 16 15 37 29 28 4 -3 8 -14 8 -25z
m690 -9 c0 -21 -24 -28 -35 -10 -8 14 3 30 21 30 8 0 14 -9 14 -20z m1104 -13
c8 -12 7 -21 -6 -33 -22 -22 -48 -11 -48 20 0 37 34 45 54 13z m4594 -21 c-2
-12 -10 -21 -18 -21 -16 0 -25 28 -16 52 9 23 38 -4 34 -31z m-7476 -11 c11
-42 -8 -57 -33 -26 -27 33 -25 63 3 59 14 -2 24 -13 30 -33z m4398 26 c0 -23
-14 -41 -31 -41 -19 0 -27 29 -12 43 10 10 43 8 43 -2z m3185 -46 c0 -30 -39
-27 -43 3 -3 20 0 23 20 20 15 -2 23 -10 23 -23z m-5564 -6 c49 -26 43 -105
-8 -128 -56 -26 -116 33 -94 91 16 43 61 60 102 37z m-2721 -19 c0 -13 -7 -20
-20 -20 -19 0 -27 20 -13 33 13 14 33 6 33 -13z m1668 3 c-2 -10 -10 -18 -18
-18 -8 0 -16 8 -18 18 -2 12 3 17 18 17 15 0 20 -5 18 -17z m3798 -9 c4 -17 2
-29 -7 -34 -18 -12 -29 -3 -29 24 0 42 26 50 36 10z m1888 -6 c13 -22 -14 -54
-38 -45 -16 6 -22 48 -9 61 11 11 35 3 47 -16z m-3376 -7 c19 -11 11 -45 -11
-49 -19 -4 -32 20 -23 43 6 17 15 19 34 6z m4006 -6 c11 -8 16 -21 12 -30 -5
-14 -8 -14 -36 0 -33 17 -41 45 -12 45 9 0 25 -7 36 -15z m-3698 -6 c8 -13 -3
-24 -33 -34 -18 -5 -23 -2 -23 13 0 10 3 22 7 25 10 11 41 8 49 -4z m1774 -40
c0 -18 -22 -20 -41 -3 -22 20 -25 40 -6 47 12 5 47 -27 47 -44z m-3822 -12 c4
-21 -25 -34 -40 -19 -8 8 -8 16 2 27 16 19 34 15 38 -8z m2405 -8 c13 -21 -16
-54 -38 -45 -15 5 -21 47 -8 60 11 11 35 3 46 -15z m-3131 -24 c8 -19 8 -29 0
-37 -16 -16 -42 -2 -42 25 0 43 24 50 42 12z m6245 -5 c2 -8 -1 -22 -7 -30 -8
-13 -11 -13 -26 2 -10 9 -14 24 -10 33 7 20 40 16 43 -5z m-8122 -10 c0 -23
-69 -20 -73 3 -3 16 2 18 35 15 26 -2 38 -8 38 -18z m660 -31 c10 -14 -24 -49
-41 -42 -18 7 -18 18 2 37 18 19 30 20 39 5z m6181 -10 c3 -6 0 -17 -7 -25
-18 -17 -44 -2 -36 20 7 18 33 21 43 5z m-1430 -24 c4 -8 0 -22 -7 -31 -11
-13 -14 -13 -27 0 -17 17 -9 46 13 46 9 0 18 -7 21 -15z m-1260 -6 c9 -16 -12
-33 -31 -25 -14 5 -15 9 -5 21 15 18 26 19 36 4z m2052 5 c46 -13 20 -44 -36
-44 -36 0 -56 14 -49 34 7 16 43 21 85 10z m311 -46 c10 -26 6 -38 -12 -38
-16 0 -39 38 -32 50 11 18 35 10 44 -12z m-5238 -27 c20 -20 29 -39 29 -61 0
-43 -47 -90 -90 -90 -42 0 -67 15 -86 51 -47 92 72 174 147 100z m3327 3 c2
-11 -4 -26 -12 -33 -12 -10 -18 -8 -31 13 -9 14 -14 30 -10 36 11 19 50 7 53
-16z m-4430 -21 c3 -22 -22 -48 -38 -38 -14 8 -13 38 2 53 16 16 32 10 36 -15z
m2690 -9 c4 -27 -26 -40 -46 -20 -21 20 -8 48 20 44 14 -2 24 -11 26 -24z
m4715 -25 c2 -24 -3 -34 -15 -37 -23 -4 -38 66 -17 79 19 12 31 -3 32 -42z
m-5956 25 c8 -20 -8 -36 -26 -25 -15 10 -8 41 9 41 6 0 13 -7 17 -16z m6301
-1 c-5 -26 -38 -29 -38 -4 0 15 6 21 21 21 14 0 19 -5 17 -17z m-5723 -3 c10
-16 -14 -50 -35 -50 -25 0 -27 35 -2 49 22 13 29 13 37 1z m6170 -55 c0 -39
-31 -48 -41 -11 -7 30 2 48 24 44 11 -2 17 -13 17 -33z m-7401 4 c14 -11 24
-25 21 -30 -9 -14 -49 -11 -70 5 -16 12 -17 16 -6 30 17 21 23 20 55 -5z
m3586 3 c0 -19 -36 -46 -50 -37 -24 15 0 55 32 55 11 0 18 -7 18 -18z m2975
-32 c0 -44 -31 -56 -41 -16 -8 35 2 58 23 54 13 -2 18 -13 18 -38z m-4417 7
c4 -21 -25 -34 -40 -19 -8 8 -8 16 2 27 16 19 34 15 38 -8z m1749 3 c3 -12 12
-19 21 -18 30 5 26 -31 -4 -43 -24 -8 -31 -7 -41 7 -14 19 -17 56 -6 67 12 13
25 7 30 -13z m353 -5 c0 -21 -30 -31 -40 -14 -11 17 -3 29 21 29 10 0 19 -7
19 -15z m445 -60 c0 -38 -27 -45 -42 -12 -9 18 -8 28 0 36 20 20 42 8 42 -24z
m-3140 -15 c0 -44 -31 -56 -41 -16 -8 35 2 58 23 54 13 -2 18 -13 18 -38z
m-619 -15 c-3 -9 -14 -15 -23 -13 -22 4 -30 38 -11 49 18 11 43 -15 34 -36z
m5838 29 c19 -18 12 -34 -14 -34 -22 0 -34 15 -26 35 7 19 21 19 40 -1z
m-3409 -4 c10 -16 -14 -50 -35 -50 -25 0 -27 35 -2 49 22 13 29 13 37 1z
m2107 -27 c21 -19 24 -43 4 -43 -22 0 -60 35 -52 48 10 17 26 15 48 -5z
m-5782 -18 c9 -11 10 -19 3 -26 -14 -14 -63 6 -63 26 0 20 44 20 60 0z m8015
-11 c0 -10 -8 -20 -18 -22 -22 -4 -35 27 -16 39 20 12 34 5 34 -17z m-5942
-12 c19 -20 13 -32 -14 -32 -22 0 -33 16 -25 35 7 20 19 19 39 -3z m5255 -4
c16 -16 15 -48 -2 -48 -20 0 -39 27 -32 45 7 18 18 19 34 3z m-552 -9 c10 -17
-13 -36 -27 -22 -12 12 -4 33 11 33 5 0 12 -5 16 -11z m-2778 -67 c2 -23 -2
-34 -13 -39 -21 -7 -35 12 -35 50 0 24 4 28 23 25 17 -2 23 -11 25 -36z m1312
24 c0 -7 -7 -19 -15 -26 -19 -16 -41 1 -32 24 8 20 47 21 47 2z m-5635 -26 c3
-11 3 -24 0 -30 -10 -16 -45 8 -45 30 0 27 37 26 45 0z m2091 -1 c10 -17 -13
-36 -27 -22 -12 12 -4 33 11 33 5 0 12 -5 16 -11z m1015 1 c22 -12 25 -36 5
-43 -21 -8 -50 17 -43 37 7 19 12 20 38 6z m1837 -2 c16 -16 15 -48 -1 -48
-19 0 -37 21 -37 42 0 21 20 24 38 6z m-408 -53 c6 -8 9 -19 5 -25 -14 -23
-62 -2 -52 24 8 20 31 21 47 1z m3550 -16 c0 -12 -7 -19 -20 -19 -22 0 -29 35
-7 43 18 6 27 -2 27 -24z m-324 -13 c26 -26 34 -42 34 -71 0 -51 -44 -95 -95
-95 -51 0 -95 44 -95 95 0 47 53 105 95 105 17 0 39 -12 61 -34z m-4265 -5
c41 -41 40 -91 -1 -133 -28 -27 -36 -30 -73 -25 -84 11 -116 99 -58 158 22 21
39 29 66 29 27 0 44 -8 66 -29z m3973 -1 c18 -17 -7 -30 -55 -30 -41 0 -49 3
-49 18 0 10 3 22 7 25 8 8 85 -3 97 -13z m-6660 -22 c9 -12 16 -31 16 -41 0
-14 -6 -17 -27 -13 -16 2 -31 5 -34 5 -12 2 -20 33 -14 52 9 26 40 24 59 -3z
m624 -5 c-2 -10 -13 -19 -26 -21 -17 -3 -22 2 -22 17 0 16 6 21 26 21 19 0 25
-5 22 -17z m-1700 -10 c-4 -22 -54 -41 -68 -27 -20 20 0 44 37 44 27 0 34 -4
31 -17z m5639 -9 c8 -21 -13 -42 -28 -27 -13 13 -5 43 11 43 6 0 13 -7 17 -16z
m-1147 -7 c0 -8 -3 -17 -7 -20 -9 -9 -34 13 -27 24 8 14 34 11 34 -4z m-2596
-13 c33 -32 5 -94 -43 -94 -21 0 -51 30 -51 52 0 53 58 79 94 42z m1283 0 c3
-8 1 -20 -6 -27 -14 -14 -47 15 -37 32 10 16 36 13 43 -5z m1847 -14 c17 -16
-6 -30 -49 -30 -46 0 -61 11 -51 36 5 12 15 14 49 9 23 -4 46 -11 51 -15z
m289 -32 c14 -21 2 -49 -17 -42 -18 7 -30 39 -21 54 9 14 26 8 38 -12z m-4528
-19 c0 -15 -7 -25 -18 -27 -22 -4 -33 24 -17 43 18 21 35 13 35 -16z m3700 6
c0 -13 -8 -21 -22 -23 -17 -3 -23 2 -23 16 0 10 3 22 7 26 13 13 38 1 38 -19z
m3373 3 c3 -13 -3 -18 -22 -18 -20 0 -26 5 -26 21 0 15 5 20 22 17 13 -2 24
-11 26 -20z m-5768 -14 c0 -8 -9 -14 -20 -14 -22 0 -28 26 -7 33 16 6 27 -1
27 -19z m5185 -14 c8 -26 -1 -40 -26 -40 -13 0 -19 7 -19 23 0 40 34 53 45 17z
m-3447 -11 c4 -19 -27 -34 -41 -20 -14 14 0 43 20 39 10 -2 19 -10 21 -19z
m353 -18 c32 -26 15 -48 -24 -30 -26 12 -34 29 -20 42 10 11 19 8 44 -12z
m-1333 -13 c3 -13 -3 -18 -22 -18 -20 0 -26 5 -26 21 0 15 5 20 22 17 13 -2
24 -11 26 -20z m5407 -23 c0 -30 -39 -27 -43 3 -3 20 0 23 20 20 15 -2 23 -10
23 -23z m-6392 3 c7 -20 -11 -58 -28 -58 -24 0 -29 28 -10 50 21 23 31 25 38
8z m403 -14 c7 -28 -9 -46 -33 -37 -13 5 -18 45 -6 56 14 15 33 6 39 -19z
m1458 4 c8 -13 7 -21 -2 -30 -10 -10 -17 -8 -33 9 -23 22 -18 46 8 41 9 -2 21
-11 27 -20z m-3258 -42 c8 -22 -14 -56 -37 -56 -30 0 -36 30 -10 52 28 22 40
23 47 4z m3752 -9 c2 -12 -3 -17 -17 -17 -12 0 -21 6 -21 13 0 31 32 34 38 4z
m3736 8 c11 -8 16 -21 12 -30 -5 -14 -8 -14 -36 0 -33 17 -41 45 -12 45 9 0
25 -7 36 -15z m-2408 -40 c-3 -9 -14 -15 -23 -13 -22 4 -30 38 -11 49 18 11
43 -15 34 -36z m1988 26 c10 -16 -5 -41 -24 -41 -25 0 -35 18 -20 35 14 17 36
20 44 6z m-4317 -47 c8 -21 -13 -42 -28 -27 -13 13 -5 43 11 43 6 0 13 -7 17
-16z m1761 -6 c3 -13 -3 -18 -22 -18 -20 0 -26 5 -26 21 0 15 5 20 22 17 13
-2 24 -11 26 -20z m260 -7 c27 -23 29 -41 4 -41 -28 0 -56 25 -49 44 8 20 17
20 45 -3z m2672 -26 c0 -7 -6 -18 -14 -24 -21 -18 -41 11 -26 39 9 17 14 19
26 9 8 -6 14 -17 14 -24z m-6520 -10 c0 -37 -22 -49 -34 -19 -12 32 -6 54 14
54 16 0 20 -7 20 -35z m1134 26 c10 -16 -5 -41 -24 -41 -25 0 -35 18 -20 35
14 17 36 20 44 6z m1470 0 c10 -15 -12 -61 -28 -61 -23 0 -30 20 -15 46 13 24
33 31 43 15z m401 -21 c0 -16 -6 -26 -18 -28 -19 -4 -32 20 -23 44 9 25 41 13
41 -16z m-2940 -40 c10 -17 -23 -60 -40 -54 -20 8 -19 41 3 53 22 13 29 13 37
1z m1445 -31 c0 -25 -19 -34 -37 -16 -12 12 -13 19 -3 36 9 18 14 20 26 10 8
-6 14 -20 14 -30z m4180 6 c10 -13 10 -19 -5 -35 -23 -25 -32 -25 -45 -1 -21
41 21 71 50 36z m-5370 -25 c0 -11 -4 -20 -9 -20 -5 0 -16 -3 -25 -6 -11 -4
-16 0 -16 13 0 24 8 33 32 33 11 0 18 -7 18 -20z m-792 -34 c-2 -13 -10 -21
-23 -21 -23 0 -32 30 -14 51 16 19 41 -1 37 -30z m2550 22 c-2 -13 -11 -24
-21 -26 -22 -4 -35 27 -16 39 25 16 41 10 37 -13z m-3276 -33 c-5 -28 -24 -37
-41 -20 -12 12 -12 17 -1 30 18 22 46 15 42 -10z m4462 16 c10 -16 -5 -41 -24
-41 -10 0 -20 6 -23 14 -10 25 33 50 47 27z m-2584 -16 c10 -13 10 -19 -5 -35
-23 -25 -32 -25 -45 1 -20 37 23 66 50 34z m-1370 -10 c10 -12 8 -17 -13 -26
-32 -15 -57 -6 -57 21 0 15 7 20 29 20 16 0 34 -7 41 -15z m1075 -45 c0 -44
-31 -56 -41 -16 -8 35 2 58 23 54 13 -2 18 -13 18 -38z m5711 15 c8 -20 -13
-45 -32 -38 -8 3 -14 16 -14 29 0 17 6 24 20 24 11 0 23 -7 26 -15z m-6331
-20 c0 -30 -39 -27 -43 3 -3 20 0 23 20 20 15 -2 23 -10 23 -23z m3870 5 c7
-23 -1 -40 -20 -40 -21 0 -27 17 -15 40 14 25 27 26 35 0z m1944 -26 c-13 -16
-49 -1 -49 21 0 20 23 24 42 7 14 -11 15 -18 7 -28z m-3699 21 c15 -18 5 -35
-20 -35 -22 0 -34 15 -26 35 7 19 30 19 46 0z m574 -23 c7 -12 -7 -29 -31 -36
-18 -6 -23 -3 -23 12 0 10 3 22 7 25 9 10 41 9 47 -1z m-213 -23 c15 -29 -1
-45 -30 -30 -21 12 -27 31 -14 44 13 13 32 7 44 -14z m-1637 -30 c-9 -15 -44
-10 -51 7 -9 24 18 36 39 17 10 -9 15 -20 12 -24z m483 25 c7 -19 -20 -49 -36
-40 -12 8 -15 39 -4 49 12 12 33 7 40 -9z m1723 -29 c10 -13 10 -19 -5 -35
-23 -25 -32 -25 -45 -1 -21 41 21 71 50 36z m2456 4 c10 -17 -13 -36 -27 -22
-12 12 -4 33 11 33 5 0 12 -5 16 -11z m-5401 -29 c0 -17 -27 -24 -61 -16 -25
7 -33 31 -12 38 23 8 73 -8 73 -22z m3487 -7 c27 -24 23 -68 -8 -92 -15 -12
-33 -21 -41 -21 -21 0 -63 46 -63 70 0 49 73 78 112 43z m1888 -16 c0 -20 -41
-50 -52 -39 -17 17 1 52 28 52 13 0 24 -6 24 -13z m-4954 -8 c10 -17 -13 -36
-27 -22 -12 12 -4 33 11 33 5 0 12 -5 16 -11z m5262 -39 c4 -38 -14 -63 -28
-40 -11 18 -13 64 -3 74 14 14 28 -1 31 -34z m352 26 c0 -16 -14 -36 -25 -36
-17 0 -28 17 -20 30 6 10 45 15 45 6z m-4124 -51 c9 -14 13 -32 9 -45 -11 -36
-90 -63 -121 -42 -23 15 -34 50 -25 75 12 30 23 35 78 36 35 1 46 -4 59 -24z
m1440 10 c4 -8 1 -22 -6 -30 -16 -19 -40 -2 -40 26 0 23 38 26 46 4z m981 0
c7 -20 -24 -55 -43 -48 -20 7 -17 40 4 52 24 14 32 13 39 -4z m411 -2 c-2 -10
-13 -19 -26 -21 -17 -3 -22 2 -22 17 0 16 6 21 26 21 19 0 25 -5 22 -17z
m-4380 -16 c2 -10 -3 -17 -12 -17 -9 0 -16 -4 -16 -10 0 -16 -20 -12 -26 5 -8
20 15 47 35 43 9 -2 17 -11 19 -21z m6112 8 c14 -17 4 -55 -15 -55 -19 0 -37
34 -29 54 8 20 28 21 44 1z m-5802 -53 c2 -31 -1 -42 -11 -42 -17 0 -27 21
-27 54 0 55 34 44 38 -12z m352 23 c0 -9 -7 -18 -16 -22 -18 -7 -39 11 -30 26
11 17 46 13 46 -4z m1059 -4 c17 -11 7 -41 -13 -41 -19 0 -29 17 -22 35 6 17
15 18 35 6z m-2321 -18 c-2 -10 -13 -19 -26 -21 -17 -3 -22 2 -22 17 0 16 6
21 26 21 19 0 25 -5 22 -17z m1702 -18 c14 -17 4 -55 -15 -55 -22 0 -39 38
-24 56 15 18 23 18 39 -1z m-2254 -10 c7 -18 -12 -45 -32 -45 -14 0 -20 41 -7
53 11 12 33 7 39 -8z m429 -8 c19 -15 13 -37 -9 -37 -18 0 -39 27 -31 40 8 13
17 13 40 -3z m5495 -12 c0 -8 -9 -15 -20 -15 -11 0 -20 7 -20 15 0 8 9 15 20
15 11 0 20 -7 20 -15z m-485 -35 c0 -24 -5 -36 -17 -38 -19 -4 -32 29 -23 59
11 34 40 19 40 -21z m-620 -5 c0 -30 -39 -27 -43 3 -3 20 0 23 20 20 15 -2 23
-10 23 -23z m-1535 2 c0 -20 -41 -50 -52 -39 -17 17 1 52 28 52 13 0 24 -6 24
-13z m3397 -13 c9 -24 -11 -38 -37 -24 -17 9 -19 14 -9 26 15 19 38 18 46 -2z
m889 5 c10 -17 -23 -46 -37 -32 -7 7 -9 19 -6 27 7 18 33 21 43 5z m-6626 -14
c0 -8 -9 -15 -20 -15 -11 0 -20 7 -20 15 0 8 9 15 20 15 11 0 20 -7 20 -15z
m2648 -19 c2 -15 1 -35 -2 -43 -9 -24 -36 3 -36 37 0 49 33 54 38 6z m352 15
c0 -5 -7 -14 -15 -21 -18 -15 -42 1 -31 19 8 13 46 15 46 2z m1751 -44 c-7
-17 -16 -22 -41 -20 -42 2 -58 17 -40 38 9 11 16 12 25 5 9 -7 16 -6 25 5 18
22 42 1 31 -28z m405 17 c4 -17 2 -29 -7 -35 -19 -12 -33 -6 -37 15 -9 46 33
65 44 20z m784 7 c14 -27 13 -41 -3 -41 -19 0 -50 37 -42 49 10 17 33 13 45
-8z m-5185 -21 c12 -19 -3 -39 -24 -33 -27 7 -28 43 -2 43 11 0 23 -5 26 -10z
m2690 -9 c7 -23 -3 -51 -19 -51 -16 0 -37 37 -30 55 8 21 41 19 49 -4z m-1829
-2 c10 -17 -23 -46 -37 -32 -7 7 -9 19 -6 27 7 18 33 21 43 5z m-1843 -22 c6
-15 -24 -87 -37 -87 -29 0 -64 68 -36 71 6 1 14 2 20 3 5 0 15 7 22 14 15 15
25 15 31 -1z m403 -13 c7 -28 -9 -46 -33 -37 -13 5 -18 45 -6 56 14 15 33 6
39 -19z m2184 2 c0 -24 -25 -47 -43 -40 -23 9 -21 30 5 48 23 16 38 13 38 -8z
m-1430 -5 c13 -26 13 -41 -2 -41 -19 0 -47 31 -41 46 7 20 31 17 43 -5z m340
-14 c0 -24 -26 -51 -44 -44 -19 7 -22 43 -3 50 24 10 47 7 47 -6z m3126 -8
c10 -17 -13 -36 -27 -22 -12 12 -4 33 11 33 5 0 12 -5 16 -11z m-1011 -9 c10
-16 -14 -50 -35 -50 -25 0 -27 35 -2 49 22 13 29 13 37 1z m2983 -33 c4 -22
-27 -35 -38 -16 -10 15 7 42 24 36 6 -2 12 -11 14 -20z m-954 4 c10 -16 -5
-41 -24 -41 -25 0 -35 18 -20 35 14 17 36 20 44 6z m322 -21 c8 0 14 -9 14
-20 0 -17 -7 -20 -49 -20 -32 0 -51 5 -54 14 -9 22 15 38 47 32 16 -3 35 -6
42 -6z m-3058 -22 c16 -20 3 -68 -18 -68 -11 0 -20 10 -23 28 -5 26 7 52 23
52 4 0 12 -6 18 -12z m1068 -15 c-4 -16 -14 -33 -22 -39 -7 -6 -14 -21 -14
-33 0 -26 -28 -40 -41 -20 -13 21 -11 57 5 66 7 4 18 18 25 31 6 12 21 22 32
22 18 0 20 -4 15 -27z m2294 -2 c15 -29 12 -41 -9 -41 -20 0 -37 32 -26 50 10
16 23 12 35 -9z m-6632 0 c19 -11 11 -45 -11 -49 -19 -4 -32 20 -23 43 6 17
15 19 34 6z m1026 0 c10 -16 -5 -41 -24 -41 -25 0 -35 18 -20 35 14 17 36 20
44 6z m921 -17 c0 -10 -8 -20 -17 -22 -18 -3 -26 27 -11 42 12 11 28 0 28 -20z
m235 -19 c0 -39 -24 -54 -40 -25 -13 24 -13 43 1 57 19 19 39 3 39 -32z m468
17 c3 -16 -2 -22 -16 -22 -21 0 -36 25 -26 41 10 17 39 5 42 -19z m1012 -12
c22 -31 21 -60 -2 -60 -16 1 -56 62 -50 78 7 21 30 13 52 -18z m2715 10 c7
-23 -1 -40 -20 -40 -16 0 -26 25 -19 45 9 21 32 19 39 -5z m-4819 -5 c4 -8 0
-22 -7 -31 -11 -13 -14 -13 -27 0 -17 17 -9 46 13 46 9 0 18 -7 21 -15z m-248
-5 c15 0 22 -6 22 -20 0 -17 -7 -20 -49 -20 -32 0 -51 5 -54 14 -8 19 14 38
38 32 11 -3 30 -6 43 -6z m3882 -20 c0 -11 -4 -20 -9 -20 -5 0 -16 -3 -25 -6
-11 -4 -16 0 -16 13 0 24 8 33 32 33 11 0 18 -7 18 -20z m-177 -1 c13 -6 31
-23 40 -39 48 -81 -15 -170 -112 -157 -22 3 -43 1 -48 -4 -5 -5 -18 -7 -27 -3
-14 5 -17 14 -12 37 3 16 6 50 6 74 0 81 77 127 153 92z m-4109 -5 c21 -8 21
-43 0 -51 -9 -3 -24 3 -36 15 -31 30 -8 53 36 36z m496 -35 c0 -25 -19 -34
-37 -16 -12 12 -13 19 -3 36 9 18 14 20 26 10 8 -6 14 -20 14 -30z m220 20
c12 -22 7 -49 -9 -49 -15 0 -33 39 -27 56 8 20 24 17 36 -7z m1865 -14 c0 -14
-6 -19 -20 -17 -40 7 -41 46 -2 40 14 -2 22 -10 22 -23z m-1095 -10 c19 -23
-1 -40 -29 -26 -22 12 -26 23 -14 34 11 12 30 8 43 -8z m3159 -2 c11 -21 -3
-53 -24 -53 -8 0 -19 9 -25 21 -21 37 28 69 49 32z m-5339 -13 c0 -11 -4 -20
-9 -20 -5 0 -16 -3 -25 -6 -11 -4 -16 0 -16 13 0 24 8 33 32 33 11 0 18 -7 18
-20z m4295 -3 c10 -8 15 -19 11 -25 -15 -25 -63 -4 -53 22 8 20 18 20 42 3z
m220 -12 c0 -5 -10 -11 -22 -13 -16 -2 -23 2 -23 13 0 11 7 15 23 13 12 -2 22
-7 22 -13z m-648 -21 c8 -21 -13 -42 -28 -27 -13 13 -5 43 11 43 6 0 13 -7 17
-16z m-3504 -15 c8 -13 6 -21 -6 -33 -21 -21 -34 -20 -47 5 -22 40 29 66 53
28z m2597 1 c0 -11 -7 -20 -15 -20 -8 0 -15 9 -15 20 0 11 7 20 15 20 8 0 15
-9 15 -20z m3690 -6 c11 -12 10 -18 -3 -32 -16 -15 -18 -15 -34 0 -13 14 -14
20 -3 32 7 9 16 16 20 16 4 0 13 -7 20 -16z m-4780 -20 c0 -14 -21 -19 -33 -7
-9 9 13 34 24 27 5 -3 9 -12 9 -20z m1349 20 c21 -5 31 -12 31 -25 0 -16 -8
-19 -44 -19 -48 0 -74 18 -54 38 14 14 23 14 67 6z m2046 -19 c0 -14 -6 -19
-20 -17 -26 5 -29 8 -21 27 8 23 41 14 41 -10z m-1725 -24 c15 -29 12 -41 -9
-41 -20 0 -37 32 -26 50 10 16 23 12 35 -9z m450 6 c0 -8 -3 -17 -7 -20 -9 -9
-34 13 -27 24 8 14 34 11 34 -4z m294 4 c10 -15 -12 -61 -28 -61 -24 0 -29 19
-12 45 17 26 31 31 40 16z m1463 -7 c7 -19 -20 -49 -36 -40 -12 8 -15 39 -4
49 12 12 33 7 40 -9z m606 -32 c22 -19 22 -32 -1 -32 -29 0 -56 25 -49 44 7
18 18 15 50 -12z m-4703 -19 c0 -21 -29 -28 -46 -11 -14 13 -14 17 1 32 13 13
20 14 31 5 8 -6 14 -18 14 -26z m-883 -9 c7 -19 -20 -49 -36 -40 -12 8 -15 39
-4 49 12 12 33 7 40 -9z m1536 10 c12 -12 -6 -34 -29 -34 -17 0 -24 6 -24 20
0 14 7 20 23 20 13 0 26 -3 30 -6z m-1093 -34 c0 -15 -7 -20 -25 -20 -24 0
-34 18 -18 33 15 15 43 7 43 -13z m-1006 -6 c23 -9 20 -31 -5 -39 -25 -8 -44
7 -36 29 7 17 16 19 41 10z m1141 -14 c10 -11 15 -23 11 -27 -11 -11 -61 11
-64 30 -5 24 30 22 53 -3z m1974 11 c17 -11 7 -41 -13 -41 -19 0 -29 17 -22
35 6 17 15 18 35 6z m1626 -56 c0 -16 -7 -20 -32 -21 -18 -1 -39 -7 -47 -13
-17 -14 -36 -7 -36 13 0 25 29 41 50 28 14 -9 19 -8 24 4 8 22 41 13 41 -11z
m-4245 -10 c0 -16 -25 -55 -36 -55 -20 0 -26 18 -14 40 9 17 50 30 50 15z
m1997 -11 c5 -15 -20 -24 -37 -14 -7 4 -9 13 -5 19 8 14 37 11 42 -5z m1073 0
c11 -12 11 -18 -2 -31 -19 -18 -38 -10 -38 16 0 33 20 40 40 15z m1430 -34 c0
-41 -21 -57 -34 -24 -13 34 -7 64 14 64 17 0 20 -7 20 -40z m348 23 c5 -17
-26 -29 -40 -15 -6 6 -7 15 -3 22 9 14 37 9 43 -7z m-4578 -7 c0 -8 -5 -18
-10 -21 -6 -3 6 -21 25 -39 42 -40 44 -57 8 -91 -34 -31 -69 -32 -100 -3 -30
28 -30 68 2 98 13 12 22 27 19 32 -8 13 16 38 37 38 11 0 19 -6 19 -14z m634
5 c9 -15 -23 -36 -36 -23 -5 5 -7 15 -4 21 9 13 33 14 40 2z m-1697 -26 c5
-15 -21 -44 -40 -45 -14 0 -19 30 -7 45 16 19 39 19 47 0z m3817 -16 c-3 -5
-14 -9 -25 -9 -21 0 -26 26 -6 33 15 5 39 -12 31 -24z m1591 1 c0 -36 -29 -33
-33 3 -3 23 0 28 15 25 12 -2 18 -12 18 -28z m-1852 -5 c48 -42 24 -62 -34
-28 -28 17 -36 33 -22 46 11 12 27 7 56 -18z m2527 10 c14 -17 4 -55 -15 -55
-22 0 -39 38 -24 56 15 18 23 18 39 -1z m-5770 -46 c0 -40 -22 -55 -34 -23 -8
20 -8 59 0 67 16 15 34 -8 34 -44z m350 26 c0 -9 -7 -18 -16 -22 -18 -7 -39
11 -30 26 11 17 46 13 46 -4z m3566 3 c8 -12 -21 -38 -43 -38 -17 0 -17 37 0
43 21 9 36 7 43 -5z m-1776 -19 c0 -15 -5 -20 -22 -17 -34 5 -37 38 -4 38 20
0 26 -5 26 -21z m103 -14 c-3 -34 -23 -49 -41 -31 -12 12 -11 18 3 40 22 33
41 28 38 -9z m402 -1 c0 -32 -21 -39 -38 -12 -8 12 -7 21 3 32 19 24 35 14 35
-20z m-1089 -10 c8 -29 -7 -49 -30 -41 -19 7 -21 38 -4 55 18 18 27 15 34 -14z
m2710 1 c18 -27 13 -52 -11 -62 -22 -8 -32 5 -40 50 -7 33 -5 37 14 37 11 0
28 -11 37 -25z m-3112 6 c10 -15 -12 -61 -29 -61 -21 0 -29 24 -15 49 11 22
35 28 44 12z m2120 -20 c10 -15 -12 -61 -29 -61 -24 0 -29 29 -10 50 20 22 31
25 39 11z m404 -24 c3 -22 -1 -27 -18 -27 -23 0 -35 22 -26 46 10 25 41 12 44
-19z m2398 -48 c10 -17 -23 -46 -37 -32 -7 7 -9 19 -6 27 7 18 33 21 43 5z
m-3170 -24 c8 -20 -13 -45 -32 -38 -14 5 -19 34 -7 46 11 12 33 7 39 -8z
m1769 -5 c10 -16 -5 -50 -21 -50 -17 0 -28 24 -20 45 6 17 32 20 41 5z m715
-9 c15 -29 12 -41 -10 -41 -21 0 -40 27 -33 48 7 18 31 14 43 -7z m-3573 -7
c3 -8 -2 -23 -11 -32 -15 -15 -17 -15 -32 -1 -14 15 -14 18 1 33 21 20 34 20
42 0z m-817 -5 c0 -23 -22 -49 -40 -49 -24 0 -26 17 -3 42 18 20 43 24 43 7z
m96 -10 c10 -17 -23 -46 -37 -32 -7 7 -9 19 -6 27 7 18 33 21 43 5z m-606 -34
c0 -22 -15 -25 -39 -9 -17 12 -19 19 -10 30 13 16 49 2 49 -21z m3450 26 c0
-23 -14 -41 -30 -41 -22 0 -32 24 -17 39 13 13 47 15 47 2z m2152 -8 c35 -32
13 -93 -34 -93 -49 0 -74 56 -41 92 20 22 51 23 75 1z m-3428 -14 c66 -52 -2
-167 -77 -128 -62 34 -63 104 -2 137 30 17 49 14 79 -9z m-2254 -8 c13 -26 13
-41 -2 -41 -19 0 -47 31 -41 46 7 20 31 17 43 -5z m2865 -11 c0 -36 -29 -33
-33 3 -3 23 0 28 15 25 12 -2 18 -12 18 -28z m-1090 -20 c0 -16 -6 -26 -17
-28 -14 -3 -18 3 -18 28 0 25 4 31 18 28 11 -2 17 -12 17 -28z m-89 8 c8 -12
-21 -38 -43 -38 -16 0 -17 22 -1 38 15 15 35 15 44 0z m2210 -24 c4 -17 2 -29
-7 -34 -18 -12 -29 -3 -29 24 0 42 26 50 36 10z m-3307 2 c10 -12 8 -17 -8
-25 -26 -15 -41 -14 -41 2 0 14 19 37 31 37 4 0 12 -6 18 -14z m4821 -32 c0
-20 -30 -30 -40 -13 -11 17 7 40 26 32 8 -3 14 -12 14 -19z m-3366 -6 c13 -22
-14 -54 -38 -45 -16 6 -22 48 -9 61 11 11 35 3 47 -16z m672 11 c8 -13 -3 -24
-33 -34 -18 -5 -23 -2 -23 13 0 10 3 22 7 25 10 11 41 8 49 -4z m691 -14 c5
-15 -21 -44 -40 -45 -14 0 -19 30 -7 45 16 19 39 19 47 0z m-2457 -10 c15 -18
7 -43 -16 -52 -24 -9 -46 24 -33 48 12 23 32 24 49 4z m3828 -1 c6 -2 12 -10
12 -19 0 -11 -12 -15 -49 -15 -53 0 -70 12 -51 35 11 13 44 13 88 -1z m-1058
-44 c0 -41 -21 -57 -34 -24 -13 34 -7 64 14 64 17 0 20 -7 20 -40z m350 25 c0
-9 -7 -18 -16 -22 -18 -7 -39 11 -30 26 11 17 46 13 46 -4z m-3645 -21 c0 -10
-8 -20 -17 -22 -18 -3 -26 27 -11 42 12 11 28 0 28 -20z m2645 10 c11 -13 10
-19 -7 -36 -24 -24 -43 -17 -43 16 0 38 27 49 50 20z m2010 -5 c12 -22 7 -49
-9 -49 -15 0 -33 39 -27 56 8 20 24 17 36 -7z m-1812 -35 c12 -14 22 -38 22
-55 0 -42 -48 -89 -90 -89 -41 0 -90 47 -90 87 0 83 102 120 158 57z m-3465 9
c4 -2 7 -11 7 -19 0 -19 -96 -20 -103 0 -9 23 14 37 53 30 19 -4 38 -9 43 -11z
m4710 -5 c13 -19 2 -48 -17 -48 -23 0 -40 38 -25 56 14 17 28 14 42 -8z
m-4413 -29 c12 -22 7 -49 -9 -49 -15 0 -33 39 -27 56 8 20 24 17 36 -7z m2345
-9 c0 -31 -31 -39 -40 -11 -8 26 2 43 23 39 11 -2 17 -13 17 -28z m-1096 1
c17 -11 5 -51 -15 -51 -17 0 -28 24 -20 45 6 17 15 19 35 6z m2127 -36 c4 -8
0 -22 -7 -31 -11 -13 -14 -13 -27 0 -17 17 -9 46 13 46 9 0 18 -7 21 -15z
m1339 -81 c0 -10 -8 -20 -18 -22 -22 -4 -35 27 -16 39 20 12 34 5 34 -17z
m503 3 c2 -9 -4 -20 -12 -23 -21 -8 -46 13 -39 32 8 20 47 13 51 -9z m-3729
-21 c9 -11 6 -17 -15 -31 -21 -14 -28 -14 -35 -4 -10 16 7 49 25 49 8 0 19 -6
25 -14z m2544 -8 c6 -8 7 -23 3 -33 -6 -18 -8 -18 -28 2 -13 13 -18 28 -14 38
7 19 25 16 39 -7z m-3636 -14 c6 -16 -19 -44 -39 -44 -15 0 -20 30 -8 45 16
20 39 19 47 -1z m-159 -17 c2 -9 -4 -20 -12 -23 -21 -8 -46 13 -39 32 8 20 47
13 51 -9z m1568 -2 c8 -31 -1 -55 -20 -55 -14 0 -26 29 -26 63 0 28 39 21 46
-8z m342 8 c-5 -26 -38 -29 -38 -4 0 15 6 21 21 21 14 0 19 -5 17 -17z m2767
-3 c14 -15 16 -23 7 -32 -14 -14 -62 15 -62 37 0 22 34 18 55 -5z m-4205 -40
c0 -41 -21 -57 -34 -24 -13 34 -7 64 14 64 17 0 20 -7 20 -40z m346 29 c9 -15
-11 -33 -30 -26 -9 4 -13 13 -10 22 7 17 30 20 40 4z m1464 -9 c0 -11 -6 -20
-14 -20 -8 0 -16 -6 -19 -12 -8 -23 -30 8 -22 31 9 29 55 29 55 1z m68 -9 c19
-11 11 -55 -10 -59 -12 -2 -19 5 -24 22 -9 38 6 55 34 37z m240 -25 c2 -15 1
-35 -2 -43 -9 -24 -36 3 -36 37 0 49 33 54 38 6z m352 9 c0 -21 -30 -31 -40
-14 -11 17 -3 29 21 29 10 0 19 -7 19 -15z m-3245 -15 c14 -15 16 -23 7 -32
-14 -14 -62 15 -62 37 0 22 34 18 55 -5z m1573 -16 c2 -11 -4 -26 -12 -33 -12
-10 -18 -8 -31 13 -9 14 -14 30 -10 36 11 19 50 7 53 -16z m2117 -5 c10 -16
-4 -59 -19 -59 -19 0 -37 45 -23 59 14 14 34 14 42 0z m833 -26 c-5 -26 -38
-29 -38 -4 0 15 6 21 21 21 14 0 19 -5 17 -17z m-621 -26 c22 -16 4 -27 -48
-27 -41 0 -49 3 -49 18 0 10 3 21 6 25 8 8 76 -4 91 -16z m293 -28 c12 -22 7
-49 -9 -49 -15 0 -33 39 -27 56 8 20 24 17 36 -7z m-1232 -32 c4 -21 -25 -34
-40 -19 -8 8 -8 16 2 27 16 19 34 15 38 -8z m-1091 -31 c-4 -9 -16 -16 -27
-16 -25 0 -28 37 -2 43 23 5 36 -8 29 -27z m406 2 c6 -8 7 -23 3 -33 -6 -18
-8 -18 -28 2 -13 13 -18 28 -14 38 7 19 25 16 39 -7z m-1091 -22 c20 -35 -39
-116 -85 -116 -24 0 -67 44 -67 70 0 12 11 32 24 45 20 20 33 24 71 21 32 -1
50 -8 57 -20z m2808 10 c0 -7 -7 -19 -15 -26 -19 -16 -41 1 -32 24 8 20 47 21
47 2z m-692 -28 c16 -16 15 -48 -1 -48 -19 0 -37 21 -37 42 0 21 20 24 38 6z
m1127 -83 c0 -30 -39 -27 -43 3 -3 20 0 23 20 20 15 -2 23 -10 23 -23z m-1725
-15 c0 -13 -7 -20 -20 -20 -13 0 -20 7 -20 20 0 13 7 20 20 20 13 0 20 -7 20
-20z m-1090 -20 c0 -13 -7 -20 -20 -20 -13 0 -20 7 -20 20 0 13 7 20 20 20 13
0 20 -7 20 -20z m475 -10 c0 -11 -14 -16 -52 -18 -47 -3 -53 -1 -53 17 0 24
12 28 64 21 27 -3 41 -10 41 -20z m1642 -6 c8 -21 -13 -42 -28 -27 -13 13 -5
43 11 43 6 0 13 -7 17 -16z m398 -4 c14 -15 16 -23 7 -32 -14 -14 -62 15 -62
37 0 22 34 18 55 -5z m-3139 -4 c18 -14 18 -15 -10 -26 -45 -17 -80 -9 -84 18
-3 20 1 22 35 22 22 0 48 -6 59 -14z m1392 -29 c-5 -31 -26 -32 -40 -2 -10 22
-9 28 2 35 19 12 42 -8 38 -33z m734 7 c4 -3 5 -11 1 -19 -3 -10 -20 -15 -48
-15 -46 0 -61 11 -51 36 5 13 15 14 49 9 23 -4 45 -9 49 -11z m-1827 -15 c9
-28 -9 -46 -30 -29 -8 7 -15 21 -15 31 0 26 37 25 45 -2z m2115 -18 c15 -29
12 -41 -9 -41 -20 0 -37 32 -26 50 10 16 23 12 35 -9z m-792 -134 c4 -20 -25
-34 -40 -19 -15 15 -1 44 19 40 10 -2 19 -11 21 -21z m-1093 -22 c0 -13 -8
-21 -22 -23 -17 -3 -23 2 -23 16 0 10 3 22 7 26 13 13 38 1 38 -19z m2119 -18
c8 -13 7 -20 -4 -27 -8 -5 -19 -10 -23 -10 -12 0 -20 28 -13 46 7 19 25 15 40
-9z m-1329 -17 c27 -30 6 -48 -29 -25 -27 18 -31 27 -19 38 12 12 30 7 48 -13z
m-1094 -19 c18 -14 21 -23 13 -31 -16 -16 -64 8 -64 32 0 23 22 23 51 -1z
m2117 -20 c27 -23 29 -41 4 -41 -28 0 -56 25 -49 44 8 20 17 20 45 -3z"/>
<path d="M4948 8844 c33 -23 231 -74 225 -57 -6 14 -134 57 -203 67 -44 7 -44
6 -22 -10z"/>
<path d="M4555 8840 l-30 -8 32 -1 c17 0 35 4 38 9 7 11 3 11 -40 0z"/>
<path d="M4725 8840 c-13 -5 20 -9 90 -9 70 0 103 4 90 9 -11 5 -51 9 -90 9
-38 0 -79 -4 -90 -9z"/>
<path d="M4658 8773 c7 -3 16 -2 19 1 4 3 -2 6 -13 5 -11 0 -14 -3 -6 -6z"/>
<path d="M4440 8763 c-95 -15 -172 -38 -215 -64 -27 -17 -41 -28 -30 -24 11 4
74 20 140 37 66 17 127 37 135 44 8 8 10 13 5 13 -6 -1 -21 -3 -35 -6z"/>
<path d="M4931 8727 c2 -2 21 -15 42 -30 l37 -28 0 30 c0 30 -2 31 -42 31 -23
0 -39 -1 -37 -3z"/>
<path d="M5074 8692 c9 -17 27 -68 40 -114 14 -45 32 -105 41 -133 8 -27 20
-90 25 -139 8 -69 17 -102 40 -140 16 -28 30 -46 30 -41 1 55 -36 274 -64 374
-19 69 -38 143 -42 164 -7 42 -7 42 -52 52 l-34 7 16 -30z"/>
<path d="M4786 8648 c116 -127 214 -310 280 -528 30 -101 30 -65 -1 53 -40
155 -118 332 -207 474 -39 62 -40 63 -85 63 l-45 0 58 -62z"/>
<path d="M5030 8694 c0 -9 9 -27 20 -41 24 -30 25 -25 6 22 -16 37 -26 45 -26
19z"/>
<path d="M4550 8678 c-36 -11 -74 -29 -86 -39 -12 -11 -28 -17 -37 -13 -12 4
-60 -37 -174 -150 -136 -135 -152 -155 -118 -140 143 60 211 77 318 82 75 3
112 1 120 -7 18 -18 -5 -27 -82 -35 -142 -13 -358 -87 -376 -129 -7 -15 -18
-21 -34 -19 -53 5 -149 -85 -283 -264 -4 -6 5 -25 22 -45 16 -19 29 -40 30
-47 0 -14 405 -555 644 -860 l151 -193 25 29 c14 16 46 54 72 83 26 30 109
160 186 290 136 230 139 236 145 306 8 95 -8 349 -28 443 -36 175 -119 381
-210 521 -61 94 -171 209 -199 208 -12 0 -50 -10 -86 -21z m218 -411 c4 -20
-25 -34 -39 -20 -14 14 1 45 20 41 9 -2 17 -11 19 -21z m-204 -103 c19 -7 21
-30 3 -37 -20 -8 -41 9 -34 27 7 18 9 18 31 10z m216 -213 c0 -11 -5 -23 -11
-27 -15 -9 -33 12 -26 30 9 23 37 20 37 -3z m-450 -44 c0 -19 -3 -37 -7 -40
-12 -13 -33 15 -33 44 0 22 5 29 20 29 16 0 20 -7 20 -33z m210 19 c0 -19 -29
-48 -41 -41 -10 7 -12 39 -2 48 12 13 43 7 43 -7z m356 -267 c8 -6 14 -24 14
-40 0 -22 -8 -34 -32 -49 -42 -25 -73 -25 -98 0 -28 28 -25 64 7 90 30 23 81
23 109 -1z m-636 -14 c10 -12 10 -19 2 -27 -15 -15 -48 14 -38 31 10 15 21 14
36 -4z m238 -70 c2 -17 9 -36 14 -43 8 -9 8 -16 0 -24 -24 -24 -76 60 -57 92
13 21 40 5 43 -25z m167 4 c0 -17 -6 -25 -22 -27 -17 -3 -23 2 -23 15 0 22 20
45 35 40 5 -2 10 -15 10 -28z m19 -357 c7 -12 -22 -52 -39 -52 -20 0 -24 23
-7 43 16 18 37 22 46 9z"/>
<path d="M4918 8659 c18 -20 14 -31 -7 -19 -12 6 29 -72 102 -194 67 -112 124
-203 126 -201 2 2 -15 46 -37 97 -22 51 -50 127 -62 168 -17 59 -30 82 -58
108 -38 35 -89 67 -64 41z"/>
<path d="M5190 8663 c0 -5 9 -44 18 -88 15 -66 20 -77 29 -61 7 12 17 17 31
14 18 -5 19 -3 10 31 -13 48 -27 72 -52 93 -22 19 -36 23 -36 11z"/>
<path d="M5367 8592 c16 -21 39 -62 52 -90 23 -49 41 -67 41 -39 -1 24 -38 94
-70 130 -42 48 -58 48 -23 -1z"/>
<path d="M4135 8591 c-102 -41 -162 -71 -177 -88 -8 -10 0 -8 22 6 19 11 64
30 100 41 59 18 159 69 135 69 -5 0 -41 -12 -80 -28z"/>
<path d="M4199 8530 c-13 -10 -19 -19 -13 -20 6 0 19 9 29 20 23 26 14 26 -16
0z"/>
<path d="M3695 8445 c-49 -35 -91 -69 -93 -75 -7 -20 21 -10 67 24 43 32 131
116 121 116 -3 0 -45 -29 -95 -65z"/>
<path d="M5250 8479 c0 -11 -4 -18 -9 -15 -5 4 -2 -22 6 -56 8 -35 23 -101 34
-148 l19 -85 -4 130 c-4 124 -17 195 -37 195 -5 0 -9 -9 -9 -21z"/>
<path d="M5360 8465 c0 -5 5 -17 10 -25 5 -8 10 -10 10 -5 0 6 -5 17 -10 25
-5 8 -10 11 -10 5z"/>
<path d="M3724 8363 c-17 -16 -41 -41 -55 -57 l-24 -30 37 30 c33 26 85 84 76
84 -2 0 -17 -12 -34 -27z"/>
<path d="M5050 8329 c0 -3 9 -32 20 -65 36 -104 70 -294 77 -426 4 -94 3 -128
-5 -128 -8 0 -12 -23 -12 -67 l1 -68 21 40 c20 37 20 50 15 225 -9 282 -11
300 -46 369 -34 67 -71 129 -71 120z"/>
<path d="M3489 8273 c-50 -54 -81 -96 -42 -57 18 18 41 38 51 43 15 8 38 51
28 51 -1 0 -18 -17 -37 -37z"/>
<path d="M3446 8132 c-33 -32 -86 -101 -123 -161 l-66 -106 47 43 c25 23 60
45 76 49 28 5 43 23 20 23 -5 0 -10 10 -10 21 0 17 5 20 25 17 19 -4 25 -1 25
12 0 10 15 48 34 86 19 38 34 69 33 71 -1 1 -29 -24 -61 -55z"/>
<path d="M5332 8140 c-1 -30 -4 -73 -7 -95 l-5 -40 10 33 c6 18 9 61 7 95 l-3
62 -2 -55z"/>
<path d="M5412 8118 c-6 -29 -14 -80 -16 -113 l-6 -60 17 30 c15 27 33 195 21
195 -3 0 -10 -24 -16 -52z"/>
<path d="M5207 8050 c3 -52 9 -120 13 -150 l7 -55 13 30 c8 17 14 62 13 100 0
55 -5 80 -26 120 l-26 50 6 -95z"/>
<path d="M3581 8074 c-34 -44 -26 -64 11 -26 23 23 29 35 21 43 -7 7 -16 3
-32 -17z"/>
<path d="M3748 8028 c-35 -27 -50 -58 -30 -58 10 0 76 80 71 85 -2 2 -21 -10
-41 -27z"/>
<path d="M5091 8024 c0 -11 3 -14 6 -6 3 7 2 16 -1 19 -3 4 -6 -2 -5 -13z"/>
<path d="M3303 7998 c-15 -20 -25 -38 -20 -38 3 0 12 11 21 25 17 26 16 35 -1
13z"/>
<path d="M3395 7929 c-18 -23 -23 -35 -16 -42 16 -16 13 -57 -4 -64 -9 -3 -22
2 -29 12 -12 16 -25 2 -135 -144 -121 -160 -122 -163 -109 -191 l14 -28 59 76
c33 42 109 126 168 188 115 120 133 152 110 197 -17 35 -25 34 -58 -4z"/>
<path d="M3686 7951 c-4 -7 -5 -15 -2 -18 9 -9 19 4 14 18 -4 11 -6 11 -12 0z"/>
<path d="M3316 7887 c-47 -49 -185 -233 -300 -402 -81 -118 5 -16 156 185 72
96 149 196 171 223 52 63 35 60 -27 -6z"/>
<path d="M3187 7886 c-49 -44 -56 -56 -33 -56 8 0 16 -8 18 -17 2 -12 13 -3
39 32 49 70 50 72 36 78 -6 2 -33 -14 -60 -37z"/>
<path d="M3760 7901 c0 -6 4 -13 10 -16 6 -3 7 1 4 9 -7 18 -14 21 -14 7z"/>
<path d="M3677 7801 c-62 -86 -75 -120 -26 -72 17 17 35 29 40 25 17 -10 9
-35 -18 -60 l-26 -24 24 -34 c13 -18 53 -69 89 -112 l65 -79 5 55 c4 40 9 55
20 55 11 0 16 -13 18 -45 5 -96 50 -186 139 -280 36 -39 68 -69 70 -67 2 2 -4
20 -12 40 -8 20 -15 46 -15 58 0 18 4 20 26 15 25 -7 25 -6 -12 51 -20 32 -81
126 -136 209 -97 147 -100 151 -163 182 -36 17 -65 36 -65 42 0 6 23 -1 51
-15 l50 -26 -12 23 c-7 13 -23 40 -37 60 -13 20 -22 42 -20 49 2 6 28 -25 57
-69 29 -45 60 -87 69 -94 11 -8 9 -1 -6 22 -12 19 -42 65 -65 102 -23 37 -45
68 -48 68 -3 0 -31 -35 -62 -79z"/>
<path d="M3828 7795 c23 -42 324 -477 506 -728 115 -161 137 -198 91 -157 -15
14 7 -23 50 -83 59 -82 81 -105 90 -97 10 8 -26 69 -159 268 -95 141 -231 336
-302 432 -72 96 -161 218 -198 270 -71 99 -96 129 -78 95z"/>
<path d="M3920 7586 c0 -2 8 -10 18 -17 15 -13 16 -12 3 4 -13 16 -21 21 -21
13z"/>
<path d="M5237 7548 c-8 -24 -18 -52 -23 -62 -5 -13 -4 -17 4 -13 12 8 46 106
39 113 -3 3 -12 -14 -20 -38z"/>
<path d="M3967 7519 c10 -17 24 -36 32 -42 8 -7 2 7 -14 31 -32 49 -45 57 -18
11z"/>
<path d="M4115 7220 c-4 -6 10 -37 30 -68 45 -67 161 -218 175 -227 9 -6 -171
277 -190 298 -4 5 -11 4 -15 -3z"/>
<path d="M4519 6868 c40 -60 75 -108 77 -108 16 0 -6 39 -62 111 -94 120 -97
119 -15 -3z"/>
<path d="M4792 6891 c-106 -122 -104 -119 -92 -141 15 -28 24 -25 43 13 9 17
36 67 61 110 25 42 44 77 42 77 -2 0 -26 -26 -54 -59z"/>
<path d="M4819 6704 c-37 -48 -40 -57 -28 -70 13 -13 19 -6 46 56 17 38 30 70
27 70 -2 0 -22 -25 -45 -56z"/>
<path d="M4636 6711 c-3 -5 4 -21 16 -36 26 -34 45 -14 20 21 -18 25 -28 29
-36 15z"/>
<path d="M4604 6675 c-3 -8 4 -28 17 -46 18 -26 23 -29 31 -15 6 11 2 25 -13
46 -26 34 -28 35 -35 15z"/>
<path d="M4725 6590 c-3 -5 2 -21 12 -36 17 -26 17 -26 26 -6 14 31 -21 70
-38 42z"/>
<path d="M4700 6552 c0 -5 10 -17 21 -28 22 -19 22 -19 10 3 -12 24 -31 39
-31 25z"/>
<path d="M4796 6494 c-10 -26 79 -135 235 -289 l141 -140 -177 223 c-97 122
-181 222 -185 222 -4 0 -11 -7 -14 -16z"/>
<path d="M4347 6368 c-41 -62 -77 -120 -82 -128 -12 -22 68 55 136 132 54 60
59 69 47 87 -7 12 -16 21 -20 21 -4 0 -40 -51 -81 -112z"/>
<path d="M4425 6358 l-50 -53 53 50 c48 46 57 55 49 55 -1 0 -25 -24 -52 -52z"/>
<path d="M4589 6352 c5 -10 18 -25 28 -33 12 -10 11 -5 -6 19 -24 35 -38 43
-22 14z"/>
<path d="M4885 6255 c61 -79 226 -275 231 -275 17 0 -161 223 -227 285 l-43
40 39 -50z"/>
<path d="M4345 6219 c-46 -39 -74 -57 -86 -54 -24 8 -71 -51 -184 -231 -91
-144 -107 -191 -51 -146 60 47 407 475 395 487 -3 2 -36 -23 -74 -56z"/>
<path d="M4669 6243 c19 -33 50 -68 55 -62 7 7 -44 79 -56 79 -5 0 -4 -8 1
-17z"/>
<path d="M4551 6092 l-73 -107 58 55 c33 30 76 69 97 85 36 29 37 31 22 53 -9
12 -19 22 -23 22 -4 -1 -40 -49 -81 -108z"/>
<path d="M4855 6180 c10 -11 20 -20 23 -20 3 0 -3 9 -13 20 -10 11 -20 20 -23
20 -3 0 3 -9 13 -20z"/>
<path d="M4900 6127 c0 -2 15 -16 33 -33 l32 -29 -29 33 c-28 30 -36 37 -36
29z"/>
<path d="M5027 5983 c293 -329 395 -443 400 -443 3 0 -13 21 -35 48 -70 83
-423 472 -429 472 -3 0 26 -35 64 -77z"/>
<path d="M5096 6048 c4 -7 32 -46 62 -86 37 -48 58 -69 63 -61 5 8 -17 40 -59
86 -62 70 -82 88 -66 61z"/>
<path d="M5262 5616 c67 -87 166 -209 218 -270 100 -117 366 -386 434 -438
l41 -32 -26 30 c-15 16 -77 92 -139 169 -63 77 -206 237 -319 355 -358 373
-347 364 -209 186z"/>
<path d="M5880 5002 c12 -18 25 -31 28 -27 3 3 -7 18 -23 33 l-28 27 23 -33z"/>
<path d="M5881 4838 c75 -86 179 -190 219 -218 23 -16 30 -17 39 -7 8 11 -2
25 -47 63 -31 27 -103 90 -159 141 -56 51 -105 93 -108 93 -4 0 21 -33 56 -72z"/>
<path d="M8070 8433 c-26 -10 -102 -65 -97 -70 7 -6 56 21 92 51 31 26 31 29
5 19z"/>
<path d="M8092 8365 c-17 -36 -15 -44 8 -38 14 4 20 14 20 34 0 36 -13 37 -28
4z"/>
<path d="M8058 8363 c-21 -24 -32 -63 -19 -63 6 0 11 2 11 4 0 2 7 20 15 40
17 40 15 44 -7 19z"/>
<path d="M7929 8339 l-24 -20 28 17 c15 9 27 18 27 20 0 8 -8 4 -31 -17z"/>
<path d="M7825 8321 c-22 -10 -65 -42 -95 -70 l-55 -53 50 34 c28 19 71 47 97
61 75 43 77 62 3 28z"/>
<path d="M7986 8301 c-11 -12 -17 -23 -14 -26 8 -9 41 21 37 34 -3 9 -11 6
-23 -8z"/>
<path d="M8024 8264 c-18 -14 -18 -14 6 -3 31 14 36 19 24 19 -6 0 -19 -7 -30
-16z"/>
<path d="M7945 8231 c-22 -10 -58 -40 -80 -67 l-40 -49 83 63 c100 76 106 85
37 53z"/>
<path d="M7912 8149 c-55 -42 -63 -53 -34 -46 9 3 29 8 44 11 18 4 29 16 37
38 6 17 10 32 8 34 -1 2 -26 -15 -55 -37z"/>
<path d="M7829 8163 c-13 -16 -12 -17 4 -4 9 7 17 15 17 17 0 8 -8 3 -21 -13z"/>
<path d="M7639 8133 l-24 -28 28 24 c15 14 27 26 27 28 0 8 -8 1 -31 -24z"/>
<path d="M7729 8074 l-34 -36 30 15 c39 20 74 57 54 57 -9 0 -31 -16 -50 -36z"/>
<path d="M7527 8032 c-15 -15 -27 -33 -27 -40 0 -7 -9 -12 -19 -12 -12 0 -51
-35 -101 -92 -86 -98 -124 -154 -136 -203 -5 -23 12 -5 71 70 43 55 103 129
134 163 99 113 123 142 114 142 -5 0 -21 -13 -36 -28z"/>
<path d="M7705 7936 c-81 -64 -116 -106 -173 -206 -33 -59 -93 -190 -87 -190
2 0 21 33 43 73 60 108 131 204 222 300 45 48 81 87 79 87 -2 0 -40 -29 -84
-64z"/>
<path d="M7549 7873 l-34 -38 38 34 c20 19 37 36 37 38 0 8 -8 0 -41 -34z"/>
<path d="M7499 7813 c-13 -16 -12 -17 4 -4 9 7 17 15 17 17 0 8 -8 3 -21 -13z"/>
<path d="M7467 7683 c-56 -85 -117 -208 -146 -293 -13 -36 -29 -79 -36 -95
-14 -32 -55 -219 -55 -253 0 -15 5 -18 25 -14 19 3 25 10 25 32 0 15 11 72 25
126 14 54 23 106 20 115 -4 10 2 23 13 31 23 16 62 101 67 143 1 17 27 86 58
153 30 67 54 122 52 122 -2 0 -24 -30 -48 -67z"/>
<path d="M7286 7675 c-15 -19 -23 -35 -19 -35 4 0 18 16 31 35 29 45 22 45
-12 0z"/>
<path d="M7340 7588 c-56 -86 -73 -128 -51 -128 5 0 19 24 31 53 12 28 37 78
56 110 51 88 30 68 -36 -35z"/>
<path d="M7232 7600 c-7 -11 -8 -20 -2 -20 5 0 14 9 20 20 6 11 7 20 3 20 -5
0 -14 -9 -21 -20z"/>
<path d="M7191 7529 c-14 -42 -7 -49 9 -9 7 17 10 33 8 36 -3 3 -11 -9 -17
-27z"/>
<path d="M7245 7430 c-9 -28 11 -52 25 -30 6 8 9 21 7 29 -4 23 -25 24 -32 1z"/>
<path d="M7115 7360 c-15 -45 -25 -83 -23 -85 2 -2 16 32 31 77 15 44 26 83
23 85 -2 2 -16 -32 -31 -77z"/>
<path d="M7196 7325 c-23 -57 -26 -80 -26 -182 0 -64 2 -114 4 -112 2 2 11 45
20 96 9 50 27 126 40 167 23 73 23 77 6 86 -16 8 -21 1 -44 -55z"/>
<path d="M7111 6974 c-1 -31 5 -46 24 -64 29 -27 32 -20 9 16 -9 13 -20 39
-24 57 l-8 32 -1 -41z"/>
<path d="M7257 6982 c-5 -7 -12 -10 -17 -7 -13 8 -19 -19 -13 -63 4 -29 15
-50 40 -74 19 -18 31 -26 28 -17 -3 9 -11 52 -18 95 -7 47 -16 74 -20 66z"/>
<path d="M7135 6850 c16 -45 110 -205 126 -215 5 -4 13 -3 19 0 5 3 -6 26 -24
50 -28 36 -56 95 -71 151 -2 6 -17 21 -34 33 l-30 22 14 -41z"/>
<path d="M7100 6777 c0 -16 41 -128 58 -155 21 -35 69 -92 76 -92 17 0 1 40
-41 105 -27 40 -58 91 -70 112 -12 21 -22 34 -23 30z"/>
<path d="M7260 6772 c0 -13 60 -95 66 -90 9 10 -18 64 -41 81 -14 10 -25 14
-25 9z"/>
<path d="M7350 6715 c0 -16 32 -66 49 -75 48 -25 41 10 -9 50 -22 17 -40 29
-40 25z"/>
<path d="M8530 6635 c-25 -8 -56 -24 -70 -35 l-25 -20 39 0 c25 0 43 6 51 17
11 15 15 16 36 1 13 -8 47 -18 76 -22 29 -4 71 -13 93 -21 l42 -15 -30 35
c-17 18 -35 42 -40 51 -13 24 -112 29 -172 9z"/>
<path d="M8770 6591 c40 -52 87 -91 108 -91 9 0 55 -16 102 -34 l85 -35 -55
50 c-63 58 -149 113 -210 134 -62 22 -65 19 -30 -24z"/>
<path d="M7312 6608 c-19 -19 -15 -30 26 -75 32 -36 44 -42 90 -48 52 -6 53
-5 47 17 -8 28 -56 72 -107 99 -44 23 -41 22 -56 7z"/>
<path d="M8005 6551 l-40 -6 45 -14 c45 -14 273 -17 294 -4 5 4 -13 12 -40 19
-60 16 -158 18 -149 4 11 -18 -27 -24 -40 -7 -7 10 -16 16 -21 16 -5 -1 -27
-5 -49 -8z"/>
<path d="M7530 6533 c0 -20 82 -73 113 -73 20 0 67 21 67 30 0 12 -92 51 -136
57 -39 5 -44 4 -44 -14z"/>
<path d="M7915 6533 c-11 -3 -31 -10 -45 -15 l-25 -10 30 -14 c17 -7 55 -13
85 -12 50 0 53 1 28 11 -16 6 -28 19 -28 29 0 18 -8 20 -45 11z"/>
<path d="M8540 6521 c0 -6 15 -12 33 -15 17 -3 61 -11 96 -17 83 -14 88 -6 9
14 -93 23 -138 29 -138 18z"/>
<path d="M8223 6483 c15 -2 39 -2 55 0 15 2 2 4 -28 4 -30 0 -43 -2 -27 -4z"/>
<path d="M8343 6483 c9 -2 23 -2 30 0 6 3 -1 5 -18 5 -16 0 -22 -2 -12 -5z"/>
<path d="M8401 6476 c2 -2 24 -6 48 -9 29 -4 40 -2 30 4 -13 8 -88 14 -78 5z"/>
<path d="M7725 6456 c-17 -12 -12 -14 41 -20 32 -4 70 -10 84 -12 14 -3 0 6
-30 20 -65 30 -70 30 -95 12z"/>
<path d="M8715 6425 c44 -27 188 -85 212 -85 21 0 -24 55 -57 69 -32 14 -149
41 -175 41 -15 -1 -9 -7 20 -25z"/>
<path d="M8145 6398 c33 -10 81 -22 107 -25 43 -5 46 -4 41 15 -6 26 -30 32
-128 31 l-80 -1 60 -20z"/>
<path d="M8530 6375 c41 -16 69 -19 55 -6 -6 5 -28 11 -50 14 l-40 6 35 -14z"/>
<path d="M8335 6370 c-3 -5 3 -10 13 -10 11 0 35 -2 53 -6 l34 -5 -34 15 c-39
18 -57 20 -66 6z"/>
<path d="M7768 6339 c108 -49 150 -59 276 -66 114 -5 303 3 293 14 -3 3 -101
6 -219 7 -144 2 -223 7 -245 15 -40 16 -43 31 -5 32 28 1 -108 27 -143 27 -11
1 8 -13 43 -29z"/>
<path d="M9126 6304 c137 -137 217 -296 261 -519 14 -69 18 -140 18 -302 0
-116 3 -206 7 -200 20 32 51 147 49 182 -4 74 -31 237 -56 336 -52 205 -158
426 -232 485 -91 72 -107 78 -47 18z"/>
<path d="M7945 6330 c11 -5 27 -9 35 -9 13 -1 13 0 0 9 -8 5 -24 9 -35 9 l-20
0 20 -9z"/>
<path d="M8645 6330 c17 -4 46 -8 65 -8 l35 0 -30 8 c-16 4 -46 8 -65 8 l-35
0 30 -8z"/>
<path d="M9089 6203 c128 -173 176 -253 162 -275 -8 -13 -5 -29 14 -70 14 -29
25 -61 25 -70 0 -17 17 -34 26 -26 8 8 -43 191 -69 250 -37 82 -102 174 -174
246 -35 34 -66 62 -68 62 -2 0 36 -53 84 -117z"/>
<path d="M8970 6287 c0 -8 7 -17 15 -21 8 -3 15 -2 15 3 0 5 -7 14 -15 21 -12
10 -15 10 -15 -3z"/>
<path d="M8382 6267 c-14 -16 -95 -36 -197 -48 -55 -6 -43 -7 60 -4 128 4 252
20 268 35 5 4 -15 10 -42 14 -28 4 -57 9 -65 12 -7 3 -18 -1 -24 -9z"/>
<path d="M7688 6261 c36 -17 179 -43 204 -38 19 4 18 5 -7 6 -16 1 -59 8 -95
15 -128 28 -127 28 -102 17z"/>
<path d="M8790 6241 c0 -4 19 -21 43 -36 23 -16 79 -64 125 -108 45 -44 82
-76 82 -71 0 5 -19 41 -43 79 -50 83 -125 145 -174 145 -18 0 -33 -4 -33 -9z"/>
<path d="M9050 6096 c0 -2 8 -10 18 -17 15 -13 16 -12 3 4 -13 16 -21 21 -21
13z"/>
<path d="M9328 5485 c-4 -82 -10 -184 -12 -225 l-5 -75 14 80 c10 52 14 131
12 225 l-2 145 -7 -150z"/>
<path d="M9257 5173 c-16 -56 -44 -137 -62 -180 l-34 -78 60 65 c33 36 62 74
65 85 3 11 4 63 2 115 l-3 95 -28 -102z"/>
<path d="M9132 5029 c-48 -24 -243 -225 -241 -249 3 -32 -2 -40 -23 -40 -16
-1 -42 -24 -86 -75 -34 -41 -60 -75 -56 -75 8 0 164 102 229 150 32 24 55 49
57 62 2 16 10 23 26 23 14 0 30 12 43 30 33 49 105 195 96 195 -1 0 -21 -10
-45 -21z"/>
<path d="M9291 4634 c0 -11 3 -14 6 -6 3 7 2 16 -1 19 -3 4 -6 -2 -5 -13z"/>
<path d="M9281 4574 c0 -11 3 -14 6 -6 3 7 2 16 -1 19 -3 4 -6 -2 -5 -13z"/>
<path d="M8717 4506 c-109 -58 -185 -115 -208 -159 -9 -17 -8 -17 25 -3 66 28
199 123 296 212 21 20 18 18 -113 -50z"/>
<path d="M8934 4351 c-44 -21 -107 -55 -140 -76 l-59 -38 33 -9 c23 -6 37 -18
46 -38 l12 -30 51 53 c70 72 156 180 141 176 -2 0 -39 -17 -84 -38z"/>
<path d="M9975 9850 c10 -11 20 -20 23 -20 3 0 -3 9 -13 20 -10 11 -20 20 -23
20 -3 0 3 -9 13 -20z"/>
<path d="M1271 6594 c0 -11 3 -14 6 -6 3 7 2 16 -1 19 -3 4 -6 -2 -5 -13z"/>
<path d="M11364 6365 c0 -55 1 -76 3 -47 2 29 2 74 0 100 -2 26 -3 2 -3 -53z"/>
<path d="M1271 6164 c0 -11 3 -14 6 -6 3 7 2 16 -1 19 -3 4 -6 -2 -5 -13z"/>
<path d="M2640 2916 c0 -2 8 -10 18 -17 15 -13 16 -12 3 4 -13 16 -21 21 -21
13z"/>
<path d="M6078 1333 c7 -3 16 -2 19 1 4 3 -2 6 -13 5 -11 0 -14 -3 -6 -6z"/>
<path d="M6538 1333 c7 -3 16 -2 19 1 4 3 -2 6 -13 5 -11 0 -14 -3 -6 -6z"/>
</g>
</svg>
