<?xml version="1.0" standalone="no"?>
<!DOCTYPE svg PUBLIC "-//W3C//DTD SVG 20010904//EN"
 "http://www.w3.org/TR/2001/REC-SVG-20010904/DTD/svg10.dtd">
<svg version="1.0" xmlns="http://www.w3.org/2000/svg"
 width="2370.000000pt" height="2370.000000pt" viewBox="0 0 2370.000000 2370.000000"
 preserveAspectRatio="xMidYMid meet">
<metadata>
Created by potrace 1.14, written by Peter Selinger 2001-2017
</metadata>
<g transform="translate(0.000000,2370.000000) scale(0.100000,-0.100000)"
fill="#000000" stroke="none">
<path d="M11786 23658 c-8 -18 -73 -154 -146 -303 -73 -148 -158 -324 -190
-390 -32 -66 -96 -199 -143 -295 -46 -96 -121 -249 -165 -340 -44 -91 -121
-249 -171 -352 -238 -490 -278 -572 -336 -693 -34 -71 -111 -229 -170 -350
-59 -121 -138 -283 -175 -360 -37 -77 -111 -230 -165 -340 -54 -110 -126 -258
-160 -330 -34 -71 -105 -218 -157 -325 -91 -185 -152 -311 -353 -725 -48 -99
-120 -247 -160 -330 -40 -82 -116 -240 -170 -350 -54 -110 -142 -292 -197
-405 -194 -402 -178 -375 -218 -376 -19 -1 -231 -5 -470 -8 -239 -4 -550 -9
-690 -11 -140 -2 -439 -7 -665 -10 -225 -3 -531 -8 -680 -10 -148 -2 -459 -7
-690 -10 -231 -3 -548 -8 -705 -10 -157 -3 -445 -7 -640 -9 -195 -3 -508 -8
-695 -11 -384 -6 -923 -14 -1345 -20 -662 -9 -1611 -23 -1619 -24 -6 -1 40
-29 384 -231 143 -84 346 -203 450 -265 105 -62 258 -152 340 -200 83 -48 166
-97 185 -110 29 -19 335 -198 392 -230 30 -17 680 -400 873 -515 44 -26 96
-57 115 -68 134 -77 216 -125 225 -132 6 -4 26 -17 45 -27 19 -11 163 -96 320
-188 157 -92 409 -241 561 -330 152 -90 295 -175 317 -189 23 -14 44 -26 47
-26 3 0 34 -17 68 -39 34 -21 157 -94 272 -161 116 -68 253 -149 305 -180 52
-31 115 -68 140 -82 25 -14 90 -52 145 -85 129 -77 473 -280 595 -351 52 -30
111 -65 130 -77 19 -12 121 -72 225 -134 105 -61 196 -115 204 -120 17 -11 12
-23 -104 -266 -42 -88 -96 -200 -120 -250 -53 -111 -135 -284 -185 -390 -20
-44 -64 -136 -97 -205 -33 -69 -74 -154 -91 -190 -16 -36 -58 -123 -92 -195
-35 -71 -82 -170 -105 -220 -24 -49 -69 -144 -100 -210 -31 -66 -76 -160 -100
-210 -23 -49 -75 -157 -114 -238 -39 -82 -71 -150 -71 -152 0 -1 -37 -78 -81
-171 -45 -93 -96 -200 -114 -239 -18 -38 -59 -124 -90 -190 -32 -66 -79 -165
-105 -220 -26 -55 -72 -152 -102 -215 -76 -158 -143 -300 -188 -395 -21 -44
-61 -128 -89 -187 -92 -195 -153 -322 -196 -413 -23 -49 -67 -142 -97 -205
-31 -63 -75 -155 -98 -205 -23 -49 -64 -135 -90 -190 -107 -222 -174 -363
-200 -420 -28 -61 -60 -127 -240 -505 -56 -118 -123 -258 -147 -310 -25 -52
-50 -98 -55 -101 -6 -4 -47 -8 -92 -9 -45 -1 -108 -3 -141 -5 -33 -2 -139 -6
-235 -10 -96 -3 -213 -8 -260 -10 -47 -2 -157 -7 -245 -10 -88 -4 -196 -8
-240 -10 -190 -8 -369 -16 -485 -20 -150 -6 -347 -14 -490 -20 -58 -3 -170 -7
-250 -10 -80 -3 -190 -8 -245 -10 -116 -5 -341 -14 -468 -19 -49 -2 -91 -7
-94 -10 -4 -4 -8 -51 -9 -106 -2 -96 -2 -100 19 -101 49 -3 499 -17 767 -24
207 -5 602 -16 740 -20 74 -3 236 -7 360 -11 124 -3 275 -7 335 -9 61 -1 233
-6 383 -10 245 -7 374 -11 394 -14 3 -1 -6 -27 -22 -58 -95 -197 -213 -439
-313 -643 -209 -427 -338 -692 -465 -950 -68 -140 -164 -336 -212 -435 -48
-99 -145 -297 -215 -440 -135 -275 -266 -542 -450 -920 -62 -126 -166 -340
-232 -475 -67 -135 -163 -333 -216 -440 -52 -107 -157 -321 -232 -475 -76
-154 -179 -365 -230 -470 -51 -104 -148 -302 -216 -440 -67 -137 -123 -252
-124 -255 -1 -5 -138 -285 -239 -489 -25 -51 -46 -95 -46 -97 0 -5 111 69 296
198 49 35 145 101 213 148 67 47 213 148 324 225 111 78 245 170 297 206 52
36 120 83 150 104 61 43 349 242 505 350 56 39 155 107 221 153 131 92 294
204 729 505 160 111 292 204 295 207 3 3 39 28 80 55 65 44 1006 696 1145 794
37 26 222 152 242 166 2 1 -104 174 -112 183 -2 2 -121 -68 -264 -155 -144
-87 -269 -162 -279 -168 -10 -5 -190 -113 -400 -240 -210 -126 -395 -237 -410
-246 -15 -9 -267 -160 -559 -337 -293 -176 -533 -319 -533 -317 0 2 187 381
416 842 229 461 557 1122 729 1468 1136 2290 1174 2366 1185 2380 5 6 41 10
82 8 71 -2 411 -9 913 -18 138 -3 372 -7 520 -10 149 -4 369 -8 490 -10 121
-2 346 -6 500 -9 154 -4 402 -8 550 -11 149 -3 383 -7 520 -10 432 -9 751 -15
1030 -20 324 -6 694 -13 1020 -20 377 -8 832 -16 1045 -20 107 -2 341 -6 520
-10 179 -3 426 -8 550 -11 124 -2 340 -6 480 -9 140 -3 370 -7 510 -10 140 -2
377 -7 525 -10 149 -3 383 -7 520 -10 459 -9 778 -15 1015 -20 129 -2 370 -7
535 -10 309 -6 526 -10 1035 -20 162 -3 399 -8 525 -10 319 -6 855 -16 1555
-30 146 -3 378 -8 515 -10 138 -2 375 -7 527 -10 l278 -6 -44 88 c-24 48 -86
176 -139 283 -52 107 -152 312 -222 455 -70 143 -167 341 -215 440 -89 182
-226 464 -429 878 -61 125 -154 314 -205 420 -52 106 -148 302 -214 437 -65
135 -167 342 -224 460 -58 118 -152 310 -209 425 -56 116 -103 212 -104 215
-1 3 -51 106 -112 230 -301 614 -362 738 -443 905 -48 99 -145 297 -215 440
-70 143 -171 350 -225 460 -54 110 -149 306 -212 435 -64 129 -160 327 -215
440 -56 113 -156 318 -223 455 -67 138 -169 345 -225 460 -56 116 -145 298
-198 405 -52 107 -159 326 -237 485 -78 160 -168 344 -200 410 -32 66 -135
278 -230 470 -95 193 -180 369 -190 391 l-18 42 3064 -2 c1685 0 3064 -4 3064
-7 0 -3 -26 -28 -57 -56 -32 -28 -69 -62 -84 -74 -14 -13 -63 -58 -108 -99
-46 -41 -89 -80 -95 -85 -14 -12 -317 -286 -332 -300 -71 -64 -183 -164 -200
-180 -12 -11 -39 -36 -60 -54 -102 -91 -220 -198 -239 -216 -12 -11 -54 -49
-94 -85 -40 -36 -83 -74 -95 -85 -12 -11 -56 -51 -98 -88 -42 -37 -89 -80
-105 -95 -16 -15 -51 -47 -78 -71 -165 -145 -415 -375 -415 -382 0 -4 13 -27
29 -51 15 -24 40 -62 55 -86 l26 -42 98 77 c53 43 106 86 117 95 11 9 274 220
585 468 311 248 581 464 600 480 79 64 1009 807 1045 835 56 44 148 119 161
130 6 6 282 226 612 490 330 264 599 482 596 484 -2 2 -1222 6 -2711 8 -1490
2 -3399 5 -4243 6 l-1535 2 -115 231 c-63 127 -161 325 -217 440 -56 115 -166
340 -243 499 -78 160 -184 376 -235 480 -51 105 -150 307 -220 450 -174 355
-319 652 -435 890 -54 110 -150 308 -215 440 -338 690 -449 919 -655 1340 -54
110 -153 313 -220 450 -68 138 -164 336 -215 440 -275 564 -315 645 -320 645
-2 0 -11 -15 -19 -32z m341 -2934 c51 -104 154 -315 229 -469 75 -154 173
-356 219 -450 117 -241 266 -545 385 -790 56 -115 144 -295 195 -400 135 -276
270 -554 418 -855 114 -235 177 -366 177 -373 0 -5 -3874 4 -3879 9 -3 3 4 24
16 47 12 23 79 159 149 302 242 498 307 631 384 790 43 88 126 259 185 380
101 208 177 364 378 775 47 97 133 274 192 395 59 121 140 288 180 370 40 83
129 265 197 405 68 140 153 315 189 388 l64 134 115 -235 c63 -129 156 -320
207 -423z m-3884 -4360 c-1 -5 -47 -103 -103 -219 -174 -358 -265 -544 -340
-700 -40 -82 -125 -258 -189 -390 -65 -132 -159 -327 -211 -432 -61 -126 -97
-190 -104 -184 -6 4 -60 34 -121 66 -60 32 -123 65 -140 75 -16 9 -70 39 -120
65 -49 26 -112 60 -140 75 -27 15 -84 45 -125 67 -146 79 -716 386 -785 423
-38 21 -131 70 -205 110 -191 102 -277 149 -335 180 -27 15 -90 49 -140 75
-49 26 -103 56 -120 65 -16 9 -68 38 -115 62 -183 97 -331 177 -655 353 -69
37 -93 50 -285 153 -52 27 -137 73 -188 101 -51 28 -97 51 -102 51 -5 0 -11 4
-14 9 -4 6 900 8 2266 7 1400 -1 2272 -6 2271 -12z m4780 7 l1228 -1 83 -172
c46 -95 130 -267 186 -383 56 -115 142 -291 190 -390 101 -208 242 -497 395
-810 111 -227 242 -495 395 -810 48 -99 138 -283 200 -410 132 -270 270 -553
385 -790 98 -202 240 -493 395 -810 62 -126 154 -315 205 -420 51 -104 139
-284 195 -400 56 -115 139 -286 185 -380 45 -93 133 -273 195 -400 62 -126
158 -322 212 -435 55 -113 148 -302 205 -420 58 -118 143 -291 188 -385 208
-429 287 -591 359 -737 42 -86 76 -159 76 -163 0 -3 -12 2 -27 13 -16 10 -62
38 -103 61 -41 23 -82 46 -90 51 -22 13 -429 249 -470 273 -19 10 -145 83
-280 162 -237 138 -604 350 -665 385 -16 10 -122 71 -235 137 -113 66 -306
178 -430 250 -124 72 -308 179 -410 238 -102 59 -198 115 -215 125 -39 22
-426 248 -574 334 -62 36 -115 66 -117 66 -3 0 -41 23 -85 50 -44 28 -82 50
-84 50 -1 0 -54 30 -116 66 -63 37 -157 92 -209 122 -52 30 -111 64 -131 76
-20 11 -85 49 -145 84 -60 35 -118 69 -129 75 -43 26 -92 55 -135 79 -40 23
-311 180 -1005 583 -121 71 -278 162 -350 203 -159 92 -628 365 -825 480 -80
46 -163 95 -185 107 -22 12 -80 46 -130 75 -49 29 -110 64 -135 78 -25 13 -49
28 -55 32 -5 4 -30 19 -55 32 -25 14 -112 65 -195 113 -82 48 -166 97 -185
108 -19 10 -114 65 -210 122 -96 56 -294 171 -440 255 -146 85 -386 224 -535
311 -148 86 -286 166 -305 177 -179 101 -326 188 -328 194 -2 5 -8 8 -12 8 -5
0 -64 32 -132 72 -68 39 -141 81 -163 94 -22 12 -74 43 -115 68 -41 26 -83 49
-92 52 -10 4 -18 10 -18 14 0 4 25 59 56 121 31 63 89 182 129 264 40 83 119
245 175 360 56 116 137 282 180 370 43 88 128 264 190 390 62 127 152 311 200
410 48 99 125 257 171 352 l84 172 55 3 c30 2 577 2 1215 1 638 -1 1712 -2
2388 -2z m-4844 -3613 c34 -21 65 -38 67 -38 3 0 23 -11 45 -26 22 -14 56 -34
75 -45 19 -10 49 -27 67 -37 39 -23 1116 -649 1137 -661 8 -5 114 -67 235
-138 250 -146 235 -137 312 -183 32 -19 60 -34 63 -35 3 0 16 -8 30 -17 14 -8
124 -73 245 -143 121 -71 328 -191 460 -268 132 -77 254 -147 270 -157 17 -9
235 -136 485 -282 250 -146 469 -273 485 -282 17 -9 37 -21 45 -26 26 -17 173
-102 230 -133 30 -16 62 -35 70 -41 8 -6 35 -22 60 -35 25 -13 52 -30 61 -37
8 -8 18 -14 22 -14 3 0 30 -14 59 -31 29 -18 215 -126 413 -240 198 -115 367
-213 375 -218 20 -13 165 -99 204 -121 69 -39 160 -92 336 -195 102 -60 212
-124 245 -142 33 -19 67 -38 75 -43 14 -9 128 -76 205 -120 17 -10 111 -65
210 -122 99 -58 304 -177 455 -265 151 -88 358 -209 460 -268 102 -59 203
-118 225 -130 22 -13 86 -50 143 -84 57 -34 106 -61 110 -61 3 0 13 -6 21 -14
9 -7 48 -30 86 -51 39 -21 88 -49 110 -63 22 -14 49 -30 60 -36 68 -36 1204
-701 1202 -703 -3 -3 -288 -8 -932 -18 -192 -3 -476 -8 -630 -10 -154 -2 -446
-7 -650 -10 -203 -3 -491 -7 -640 -10 -260 -5 -691 -11 -1260 -20 -503 -7
-1019 -16 -1285 -20 -146 -3 -429 -7 -630 -10 -201 -3 -491 -8 -645 -10 -154
-3 -435 -7 -625 -10 -190 -3 -484 -7 -655 -10 -170 -3 -452 -7 -625 -10 -173
-3 -468 -7 -655 -10 -187 -3 -468 -8 -625 -10 -157 -2 -436 -7 -620 -10 -184
-3 -472 -8 -640 -10 -168 -3 -465 -7 -660 -11 -195 -3 -465 -7 -600 -9 -135
-2 -289 -4 -343 -5 -54 -2 -100 0 -104 3 -3 3 31 79 75 169 44 90 143 291 220
448 139 285 286 583 549 1120 359 730 419 851 536 1090 68 140 195 399 282
575 248 505 409 832 530 1080 122 249 328 669 543 1105 75 151 136 277 137
280 1 3 12 26 25 51 l23 47 191 -111 c105 -61 220 -127 255 -149z"/>
</g>
</svg>
